<svg width="102" height="103" viewbox="0 0 102 103" fill="none" xmlns="http://www.w3.org/2000/svg"><rect y=".541" width="101.74" height="101.74" rx="50.87" fill="#9F2241"/><path d="M25.517 82.352s-3.148 1.645-3.148 2.092c0 .447 4.499-1.645 4.499-1.645s-1.76 2.092-1.76 2.549c0 .456 4.014-2.55 4.014-2.55s-.58 2.997.095 3.444c.685.447 1.35-3.443 1.35-3.443s.714 2.549 1.399 2.996c.685.447.314-2.996.314-2.996l-6.763-.447z" fill="#fff"/><path d="M25.098 83.227S41.59 63.843 42.569 62.73c.98-1.112 3.367 6.087 2.625 7.21-.741 1.122-12.003 9.682-13.572 13.496l-6.524-.21z" fill="#fff"/><path d="M39.149 58.49c-2.54 1.084-7.352 3.338-9.473 5.487-.371.371-1.246 1.884-1.398 2.388-.457 1.579-.809 4.632-.447 8.55 0 0-7.2 6.306-7.2 7.656 0 1.351 4.422-1.712 4.422-1.712s-1.588 1.903-.58 2.978c1.018 1.074 4.623-4.328 4.623-4.328s.447-.904.447 0c0 .903-.114 3.538.161 4.47.276.932 1.636.485 1.636.485s.447.904 1.798-4.955c0 0 3.595 1.798 4.052 1.35.456-.447.447-.903-.904-2.244 0 0-3.52-3.69-3.063-5.04 0 0 .447-4.956 1.351-5.86.904-.903 6.867-4.299 6.867-4.299s-.276-2.225-.476-3.87a1.303 1.303 0 00-1.816-1.056z" fill="#fff"/><mask id="a" fill="#fff"><path d="M30.665 84.855c-.228 0-.476-.038-.694-.152a1.097 1.097 0 01-.533-.647c-.247-.799-.21-2.653-.19-3.88 0-.134.01-.267.01-.39-.229.323-.838 1.207-1.551 2.073-1.864 2.302-2.578 2.368-2.825 2.387a.754.754 0 01-.628-.228c-.618-.656-.456-1.522-.152-2.216-1.236.77-2.843 1.626-3.462 1.293-.114-.066-.304-.218-.304-.56 0-.257 0-.97 3.69-4.547 1.532-1.484 3.072-2.863 3.5-3.224-.333-3.89.02-6.934.476-8.513.162-.56 1.065-2.092 1.465-2.51 2.14-2.16 6.914-4.404 9.558-5.545.466-.21.999-.172 1.436.085.438.248.742.694.79 1.199.2 1.645.475 3.87.475 3.87l.029.2-.171.095c-2.045 1.18-6.107 3.567-6.8 4.261-.6.6-1.095 3.795-1.266 5.678v.038l-.01.038c-.152.457.533 2.15 3.006 4.746.694.695 1.065 1.18 1.19 1.57.18.532-.087.875-.296 1.084-.247.247-.77.266-2.51-.437-.6-.248-1.2-.523-1.551-.695-1.122 4.775-1.607 4.841-1.883 4.87a.38.38 0 01-.18-.02 2.841 2.841 0 01-.62.077zm.942-.533c.009 0 0 0 0 0zm-2.188-5.516c.038 0 .076.01.086.01.323.085.323.504.323.684 0 .171 0 .41-.01.685-.019 1.113-.057 2.986.162 3.7.048.142.114.238.247.295.314.161.847.047 1.028-.01l.19-.066c.19-.295.647-1.303 1.417-4.68l.086-.361.332.161c1.522.752 3.367 1.494 3.729 1.39.228-.23.418-.486-.913-1.818-.609-.637-3.567-3.842-3.148-5.307.066-.646.504-5.07 1.426-6.001.847-.847 5.764-3.68 6.762-4.252-.076-.58-.285-2.32-.447-3.68a1.02 1.02 0 00-.504-.761 1.03 1.03 0 00-.913-.057c-2.615 1.122-7.314 3.329-9.377 5.421-.324.333-1.199 1.807-1.322 2.254-.438 1.55-.79 4.565-.438 8.446l.019.143-.105.095c-2.948 2.577-7.104 6.59-7.104 7.428v.047c.304.143 1.987-.627 3.956-1.997l1.779-1.236-1.389 1.654c-.019.02-1.407 1.722-.58 2.588.038.037.076.057.152.057.866-.077 2.91-2.683 4.014-4.328.21-.428.418-.504.542-.504z"/></mask><path d="M29.97 84.703l.443-.848h-.002l-.44.848zm-.532-.647l-.913.283.003.01.003.01.907-.303zm-.19-3.88l.955.014v-.014h-.955zm.01-.39h.955v-3.012l-1.737 2.46.781.552zm-1.551 2.073l-.738-.608-.005.006.743.602zm-3.453 2.159l-.695.655v.001l.695-.656zm-.152-2.216l.876.384 1.24-2.828-2.621 1.633.505.81zm-3.462 1.293l-.481.826.014.008.014.008.453-.842zm3.386-5.107l-.665-.686.665.686zm3.5-3.224l.617.73.378-.319-.042-.493-.953.082zm.476-8.513l.918.266-.918-.266zm1.465-2.51l-.68-.673-.006.006-.006.007.692.66zm9.558-5.545l.379.877.013-.005-.392-.872zm1.436.085l-.484.825.007.003.007.004.47-.832zm.79 1.199l-.952.09.001.012.002.013.949-.115zm.475 3.87l-.948.118v.009l.002.009.946-.135zm.029.2l.464.836.575-.32-.093-.65-.946.134zm-.171.095l-.465-.835-.006.004-.007.003.478.828zm-8.066 9.94l-.952-.087-.004.043v.043h.956zm0 .038l.928.231.028-.114v-.117h-.956zm-.01.037l.907.303.012-.035.009-.036-.927-.231zm3.006 4.746l-.692.66.008.008.008.008.676-.675zm1.19 1.57l-.912.289.003.009.003.009.905-.307zm-.296 1.084l-.676-.676.676.676zm-2.51-.437l-.365.883.006.003.358-.886zm-1.551-.695l.418-.86-1.075-.522-.273 1.163.93.22zm-1.883 4.87l-.098-.95-.019.001-.018.003.135.946zm-.18-.02l.301-.906-.255-.085-.262.06.215.932zm-1.78-5.963l.245-.924-.12-.031h-.124v.956zm.314 1.37l-.955-.033v.017l.955.016zm.162 3.7l-.914.28.004.011.003.011.907-.302zm.247.295l.438-.85-.03-.016-.031-.013-.377.879zm1.028-.01l.287.912.014-.005.014-.005-.315-.902zm.19-.066l.316.902.31-.109.177-.275-.803-.518zm1.417-4.68l-.93-.22-.002.008.932.212zm.086-.361l.417-.86-1.073-.521-.275 1.16.93.22zm.332.161l.424-.857-.006-.002-.418.86zm3.729 1.39l.266.917.236-.068.174-.174-.676-.676zm-.913-1.818l-.691.66.007.009.008.007.676-.675zm-3.148-5.307l.919.263.023-.081.008-.084-.95-.098zm1.426-6.001l-.676-.676-.003.003.68.673zm6.762-4.252l.475.83.557-.318-.084-.636-.948.124zm-.447-3.68l-.949.111v.002l.95-.113zm-1.417-.818l-.37-.882-.007.003.377.879zm-9.377 5.421l-.681-.671-.005.005.686.666zm-1.322 2.254l.92.26v-.005l-.92-.255zm-.438 8.446l-.952.086.002.02.003.02.947-.126zm.019.143l.643.707.37-.337-.066-.497-.947.127zm-.105.095l.63.72.007-.007.006-.006-.643-.707zm-7.104 7.475h-.956v.608l.55.258.406-.866zm3.956-1.997l-.545-.785.545.785zm1.779-1.236l.732.614-1.278-1.4.546.786zm-1.389 1.654l.676.676.03-.03.026-.031-.732-.615zm-.58 2.588l-.69.66.006.008.008.007.676-.675zm.152.057v.955h.042l.042-.003-.084-.952zm4.014-4.328l.794.532.036-.054.029-.058-.86-.42zm1.788 4.59a.575.575 0 01-.252-.045l-.884 1.695c.398.209.812.26 1.136.26V83.9zm-.254-.046a.077.077 0 01-.027-.022.25.25 0 01-.04-.078l-1.813.604c.164.49.495.931 1 1.193l.88-1.697zm-.06-.08c-.08-.257-.133-.795-.152-1.523-.019-.693-.005-1.44.004-2.06l-1.911-.03c-.01.607-.024 1.4-.005 2.14.02.706.07 1.495.238 2.038l1.826-.566zm-.147-3.598c0-.047.001-.097.004-.164.002-.061.005-.144.005-.226h-1.912c0 .04-.001.087-.004.156-.002.063-.005.147-.005.234h1.912zm-1.728-.942c-.235.333-.82 1.185-1.507 2.017l1.476 1.216c.74-.899 1.372-1.816 1.593-2.13l-1.562-1.103zm-1.512 2.023c-.905 1.118-1.484 1.632-1.82 1.866-.164.114-.256.15-.288.162-.021.007-.02.006-.047.008l.146 1.906c.098-.007.28-.023.521-.106.23-.079.478-.206.757-.399.548-.38 1.258-1.05 2.217-2.233l-1.486-1.204zm-2.155 2.036c-.005 0 .016-.002.05.011a.237.237 0 01.09.058l-1.39 1.312c.383.405.895.564 1.396.525l-.146-1.906zm.141.07a.581.581 0 01-.162-.436c0-.205.066-.46.19-.741l-1.751-.768c-.338.77-.707 2.153.332 3.255l1.391-1.31zm-1.353-2.372c-.604.376-1.266.752-1.83.991-.285.121-.508.191-.665.219-.186.033-.14-.018-.009.053l-.906 1.683c.44.237.92.204 1.248.146a5.123 5.123 0 001.078-.34c.702-.298 1.462-.736 2.095-1.13l-1.011-1.622zm-2.475 1.279c.016.01.065.04.109.104.022.032.04.067.05.1.01.034.01.056.01.06h-1.91c0 .798.485 1.217.778 1.387l.963-1.651zm.17.264s-.006.028 0 .01c.019-.051.085-.2.288-.49.408-.582 1.28-1.604 3.111-3.38l-1.33-1.372c-1.858 1.8-2.832 2.922-3.346 3.655-.259.368-.423.67-.52.935-.109.301-.115.515-.115.642h1.912zm3.4-3.86a90.098 90.098 0 013.451-3.18l-1.233-1.46c-.45.378-2.006 1.773-3.549 3.267l1.33 1.373zm3.787-3.992c-.326-3.81.026-6.73.441-8.165l-1.836-.531c-.498 1.722-.85 4.89-.51 8.86l1.905-.164zm.441-8.166c.044-.15.25-.579.55-1.09.297-.508.574-.906.688-1.026l-1.383-1.32c-.285.3-.66.877-.955 1.38-.292.498-.618 1.116-.737 1.527l1.837.53zm1.225-2.103c.966-.974 2.59-2.02 4.368-2.987 1.757-.954 3.583-1.788 4.89-2.353l-.757-1.755c-1.336.577-3.22 1.436-5.046 2.429-1.805.98-3.638 2.136-4.812 3.32l1.357 1.346zm9.272-5.345a.61.61 0 01.56.038l.968-1.65a2.521 2.521 0 00-2.311-.132l.783 1.744zm.574.045c.18.102.291.28.308.456l1.903-.18a2.513 2.513 0 00-1.27-1.94l-.941 1.664zm.31.482a1472.715 1472.715 0 00.43 3.5l.034.274.01.074.002.019v.006l.95-.117.948-.118v-.002l-.001-.004-.002-.02-.01-.073-.033-.274c-.03-.234-.07-.564-.117-.945-.094-.762-.213-1.729-.312-2.55l-1.898.23zm.479 3.89l.029.2 1.892-.27-.029-.2-1.892.27zm.51-.77l-.17.095.928 1.671.171-.095-.928-1.671zm-.184.102a186.33 186.33 0 00-3.928 2.325c-.683.419-1.332.826-1.857 1.176-.495.33-.962.66-1.214.912l1.352 1.352c.095-.095.397-.323.922-.673a58.21 58.21 0 011.795-1.136 184.68 184.68 0 013.885-2.3l-.955-1.656zm-6.999 4.413a2.186 2.186 0 00-.405.602c-.096.2-.18.425-.255.656-.15.463-.28 1.017-.394 1.59a35.182 35.182 0 00-.487 3.42l1.904.173a33.3 33.3 0 01.458-3.221c.106-.537.221-1.011.339-1.375.058-.182.112-.32.159-.416.052-.11.07-.113.033-.077l-1.352-1.352zm-1.545 6.354v.038h1.912v-.038h-1.912zm.029-.193l-.01.038 1.855.463.01-.038-1.855-.463zm.01-.033c-.137.415-.04.856.052 1.154.108.35.291.752.545 1.194.509.889 1.35 2.022 2.624 3.36l1.384-1.319c-1.199-1.259-1.936-2.27-2.35-2.991a4.245 4.245 0 01-.376-.809c-.071-.229-.002-.171-.064.016l-1.814-.605zm3.237 5.724c.702.702.909 1.04.954 1.183l1.822-.578c-.202-.638-.737-1.27-1.424-1.956l-1.352 1.351zm.96 1.2c.011.035.009.044.01.034 0-.01.002-.02.004-.027.002-.004 0 .003-.013.02a.684.684 0 01-.067.075l1.352 1.352c.14-.14.366-.388.507-.747.152-.386.181-.838.017-1.32l-1.81.614zm-.066.102c.177-.176.346-.1.111-.133-.255-.035-.73-.168-1.587-.515l-.717 1.773c.883.357 1.54.567 2.043.636.524.072 1.078.015 1.502-.409l-1.352-1.352zm-1.47-.645a29.03 29.03 0 01-1.497-.67l-.836 1.719c.367.178.984.463 1.604.718l.729-1.767zm-2.846-.03c-.56 2.383-.942 3.505-1.19 4.02-.125.261-.175.278-.121.233a.54.54 0 01.172-.093c.066-.022.12-.025.088-.022l.197 1.902c.14-.015.449-.053.767-.318.257-.215.45-.519.62-.875.346-.718.766-2.017 1.329-4.409l-1.861-.438zm-1.087 4.143a.592.592 0 01.256.02l-.604 1.814c.159.053.369.094.618.058l-.27-1.892zm-.26-.005a1.892 1.892 0 01-.404.052v1.912c.363 0 .681-.066.833-.1l-.43-1.864zm.538 1.431h.003v-1.912h-.003v1.912h.003v-1.912h-.001-.001-.001v1.912zm-2.188-5.516a.65.65 0 01-.066-.003l-.026-.004c-.001 0-.002 0 0 0l.004.001a.46.46 0 00.009.001l.038.006a.839.839 0 00.127.008V77.86a.928.928 0 01.134.01h.006c.001 0 .001 0 0 0h-.005l-.022-.004a1.377 1.377 0 00-.199-.016v1.912zm-.159-.022a.598.598 0 01-.3-.192.45.45 0 01-.09-.157c-.005-.016-.002-.015 0 .011.002.025.002.052.002.098h1.912c0-.076.005-.359-.08-.647-.09-.307-.342-.8-.955-.962l-.489 1.849zm-.388-.24c0 .171 0 .394-.009.652l1.91.066c.01-.294.01-.546.01-.718h-1.91zm-.01.669c-.009.551-.023 1.318-.007 2.037.014.675.057 1.455.211 1.96l1.828-.561c-.064-.21-.112-.723-.128-1.441-.015-.675-.001-1.401.008-1.963l-1.911-.032zm.211 4.018c.103.308.315.673.778.871l.753-1.757a.568.568 0 01.212.164c.057.071.074.127.07.118l-1.813.604zm.717.842c.399.206.83.2 1.076.18.276-.021.526-.08.676-.127l-.575-1.823a1.354 1.354 0 01-.251.045.613.613 0 01-.112 0c-.023-.002.006-.002.061.026l-.875 1.7zm1.78.043l.19-.066-.631-1.805-.19.067.631 1.804zm.678-.45c.294-.456.78-1.625 1.546-4.985l-1.864-.425c-.774 3.392-1.202 4.24-1.288 4.373l1.606 1.037zm1.544-4.978l.086-.36-1.86-.442-.086.362 1.86.44zm-1.262.279l.333.161.835-1.72-.333-.161-.835 1.72zm.327.159c.783.386 1.652.772 2.381 1.05.363.14.71.258 1.002.337.145.039.296.073.44.093.114.015.349.04.595-.03l-.532-1.837c.156-.045.254-.02.19-.028a1.715 1.715 0 01-.197-.044 8.906 8.906 0 01-.815-.276 27.466 27.466 0 01-2.217-.98l-.847 1.715zm4.828 1.207c.056-.057.25-.242.359-.53.124-.33.098-.662-.004-.955-.17-.49-.61-1.024-1.268-1.683l-1.352 1.351c.317.317.524.551.655.722.138.178.163.248.16.24a.549.549 0 01.02-.352c.051-.134.135-.202.078-.145l1.352 1.352zm-.898-3.153a22.632 22.632 0 01-1.874-2.24c-.364-.508-.671-1.005-.861-1.435a2.426 2.426 0 01-.174-.522c-.025-.136-.011-.188-.011-.187l-1.838-.525c-.202.704.027 1.446.274 2.006.266.602.658 1.22 1.057 1.777a24.523 24.523 0 002.044 2.447l1.383-1.32zm-2.889-4.549c.034-.324.157-1.56.383-2.823.113-.634.248-1.251.404-1.754.077-.251.155-.457.23-.613.036-.078.069-.136.096-.178a.42.42 0 01.043-.059l-1.36-1.345c-.41.415-.663 1.073-.836 1.63-.188.61-.34 1.313-.459 1.982-.24 1.342-.37 2.642-.402 2.964l1.901.196zm1.152-5.423c.132-.132.514-.416 1.125-.82a64.62 64.62 0 012.02-1.268c1.449-.88 2.92-1.726 3.416-2.01l-.949-1.66a167.36 167.36 0 00-3.46 2.036c-.734.445-1.471.904-2.081 1.307-.58.384-1.131.771-1.423 1.063l1.352 1.352zm7.034-5.052c-.075-.573-.283-2.306-.445-3.67l-1.899.227c.162 1.357.372 3.104.449 3.692l1.895-.249zm-.445-3.668a1.975 1.975 0 00-.97-1.474l-.967 1.65c.016.009.026.019.03.027a.045.045 0 01.008.02l1.899-.223zm-.97-1.474a1.985 1.985 0 00-1.766-.114l.739 1.763a.084.084 0 01.036-.006c.013.001.021.005.024.006l.967-1.649zm-1.773-.11c-1.323.567-3.18 1.412-4.975 2.384-1.772.96-3.57 2.09-4.707 3.244l1.361 1.342c.927-.94 2.51-1.959 4.257-2.905 1.725-.935 3.524-1.754 4.817-2.309l-.754-1.757zm-9.687 5.633a4.34 4.34 0 00-.433.562 14.086 14.086 0 00-.843 1.432 3.974 3.974 0 00-.282.671l1.843.51c-.002.007.005-.018.034-.086a4.43 4.43 0 01.11-.231 12.177 12.177 0 01.723-1.228 5.164 5.164 0 01.203-.279l.016-.019-1.371-1.332zm-1.556 2.66c-.477 1.69-.83 4.828-.47 8.792l1.904-.172c-.344-3.797.007-6.69.405-8.1l-1.84-.52zm-.465 8.832l.018.143 1.896-.253-.02-.142-1.895.252zm.323-.69l-.105.094 1.286 1.415.105-.095-1.286-1.415zm-.09.082a92.33 92.33 0 00-4.71 4.416c-.713.723-1.348 1.408-1.812 1.976a7.65 7.65 0 00-.585.803 2.82 2.82 0 00-.206.397 1.475 1.475 0 00-.12.556h1.913c0 .126-.035.194-.025.17.006-.013.024-.053.068-.125.088-.142.231-.34.437-.592.408-.5.996-1.137 1.692-1.844a90.43 90.43 0 014.605-4.318l-1.258-1.439zm-7.432 8.148V82.573H21.9v-.001-.001-.001-.001-.001-.001-.001-.001-.001-.001-.001-.001-.001-.001-.001-.001-.001-.001-.001-.001-.001-.001-.001-.001-.001-.001-.001-.001-.001-.001-.001-.001-.001-.001-.001-.001-.001-.001-.001-.001-.001-.001-.001-.001-.001-.001-.001h-1.912zm.55.913c.296.138.586.109.703.094.158-.02.317-.062.462-.108a7.714 7.714 0 001.016-.425c.756-.371 1.71-.932 2.727-1.64l-1.092-1.569c-.952.663-1.823 1.172-2.477 1.493a5.89 5.89 0 01-.753.32c-.04.012-.072.02-.095.026-.024.006-.033.007-.03.006.001 0 .03-.004.078 0a.758.758 0 01.272.072l-.811 1.73zm4.908-2.078l1.778-1.237-1.09-1.57-1.78 1.237 1.092 1.57zm.5-2.636L24.56 80.38l1.464 1.229 1.389-1.655-1.464-1.229zm-1.332 1.594a.898.898 0 00-.038.04l-.013.015-.014.016-.023.029-.06.077a5.904 5.904 0 00-.652 1.076c-.149.323-.297.743-.32 1.195-.024.473.093 1.023.525 1.475l1.382-1.321.003.005a.062.062 0 01.003.007s-.006-.02-.003-.07c.005-.112.05-.28.147-.494a3.843 3.843 0 01.469-.757l-.006.007a.912.912 0 01-.048.051l-1.352-1.351zm-.58 3.938a1.136 1.136 0 00.828.337v-1.911a.778.778 0 01.524.223l-1.352 1.351zm.912.334c.31-.027.578-.153.772-.266.206-.12.41-.273.6-.435.382-.324.788-.748 1.182-1.198.79-.904 1.6-2 2.17-2.849l-1.588-1.064a28.157 28.157 0 01-2.022 2.655c-.364.417-.7.762-.98.999-.14.119-.247.195-.322.239-.087.05-.072.022.02.014l.168 1.905zm4.789-4.86c.062-.128.085-.12.028-.076a.5.5 0 01-.142.075.625.625 0 01-.203.033V77.85c-.626 0-1.102.429-1.4 1.04l1.717.84z" fill="#9F2241" mask="url(#a)"/><path d="M37.974 33.714s-9.454 3.148-8.104 13.962c1.35 10.804 12.602 7.656 21.6 8.103 8.997.447 14.41 1.798 19.355-3.595 4.946-5.393 1.797-15.313-7.419-18.46 0 0-3.386-2.245-15.084-2.245 0-.029-7.961.428-10.348 2.235z" fill="#fff"/><path d="M65.235 55.865c.085 2.045 1.227 11.166-5.326 13.306-.086.028-.666.532-.733.58-.504.428-3.519 1.141-5.992 1.74-3.652.894-11.118.476-12.088 0-.951-.466-4.603-6.372-1.436-15.636a.726.726 0 01.627-.494c3.12-.171 21.02-1.113 24.415-.19.314.085.514.37.533.694z" fill="#fff"/><path d="M40.223 39.554s-4.07 1.389-2.254 4.29c0 0 1.36.884 2.254-1.037.904-1.912 1.36-2.797 0-3.253zM62.668 39.554s4.07 1.389 2.254 4.29c0 0-1.36.884-2.254-1.037-.904-1.912-1.35-2.797 0-3.253zM61.868 48.817c-4.85.447-8.683.6-11.641.6-5.811 0-8.237-.58-8.38-.619l.343-1.38c.057.02 5.469 1.294 19.545-.018l.133 1.417z" fill="#9F2241"/><path d="M72.787 48.713s4.803.742 8.854-1.95c4.052-2.7 10.348-1.797 12.602-1.35 0 0-1.797-5.86-14.856-1.798 0 0-4.499.447-4.499-.447 0-.903.086-.97 1.399-1.607 1.255-.609 8.236-4.575 8.322-8.075.01-.552.171-1.084.494-1.54.695-.971 2.293-2.483 6.011-4.072 0 0-1.35-2.7-4.955-.903-3.605 1.797-7.656 6.743-9.007 8.54-1.35 1.798-6.705 2.35-7.409 1.18-.694-1.18-.466-8.607.428-9.51.904-.905.675-6.982.675-6.982s-3.148-.447-4.955 7.2c0 0-1.35 5.859-1.797 7.656-.447 1.798 5.687 3.462 8.693 13.658zM30.605 48.715s-4.803.742-8.855-1.95c-4.051-2.7-10.347-1.797-12.602-1.35 0 0 1.798-5.86 14.857-1.798 0 0 4.498.447 4.498-.447 0-.904-.085-.97-1.398-1.607-1.255-.609-8.236-4.575-8.322-8.075a2.723 2.723 0 00-.495-1.54c-.694-.971-2.292-2.483-6.01-4.072 0 0 1.35-2.7 4.955-.903 3.604 1.797 7.656 6.753 9.007 8.55 1.35 1.798 6.705 2.35 7.409 1.18.704-1.17.466-8.608-.428-9.511-.904-.904-.675-6.982-.675-6.982s3.148-.447 4.955 7.2c0 0 1.35 5.86 1.797 7.657.447 1.797-5.687 3.452-8.693 13.648z" fill="#fff"/><path d="M73.551 51.718h-.038c0-1.607-.742-2.977-.751-2.996l.038-.019c0 .02.751 1.389.751 3.015zM74.446 50.815h-.038c0-.799-.713-1.997-.722-2.016l.028-.02c.02.02.732 1.227.732 2.036zM74.903 49.465h-.038c0-.428-.428-.638-.437-.638l.019-.038c0 .01.456.22.456.676zM75.8 49.464h-.038c0-.428-.418-.666-.418-.676l.019-.038c.019.01.437.257.437.714zM76.95 49.359l-.038-.019a.56.56 0 00.038-.457c-.086-.18-.266-.247-.266-.247l.01-.038c.009 0 .208.076.294.257.057.152.047.314-.038.504zM78.475 50.814h-.038c0-1.37-.799-2.53-.808-2.54l.028-.018c.01.01.818 1.18.818 2.558zM75.724 49.921h-.038c0-.437-.714-1.094-.723-1.103l.028-.029c.038.02.733.676.733 1.132zM76.616 50.882h-.038c0-1.408-.438-2.055-.447-2.064l.028-.02c.01.01.114.172.229.505.114.314.228.837.228 1.579zM77.523 50.51h-.038c0-1.407-.419-2.177-.419-2.177l.038-.02c-.019.01.419.78.419 2.198zM79.115 50.814h-.038c.248-2.054-.247-2.682-.247-2.691l.029-.029c.01.01.123.162.228.58.085.38.152 1.066.028 2.14zM80.086 49.806l-.038-.01c.238-.988-.314-2.015-.314-2.025l.038-.019c.01.019.562 1.056.314 2.054zM80.724 49.131l-.038-.019c.408-.77 0-1.778 0-1.788l.038-.019c.01.01.409 1.027 0 1.826zM81.657 48.818l-.028-.02c.437-.637 0-2.016 0-2.035l.038-.01c.01.068.438 1.408-.01 2.065zM81.14 48.417l-.038-.009c.228-.609.19-.875.114-.99-.048-.075-.095-.085-.095-.085v-.038s.076.01.123.095c.086.124.124.41-.104 1.027zM82.333 48.79l-.038-.01c.228-.675 0-2.397 0-2.407l.038-.009c0 .01.219 1.74 0 2.425zM82.777 48.999l-.029-.02c.666-.913.457-3.033.457-3.062h.038c0 .029.2 2.169-.466 3.082zM83.831 47.581l-.028-.028c.418-.514.4-.98.304-1.294-.095-.333-.304-.551-.304-.561l.028-.029c0 .02.828.914 0 1.912zM84.765 47.068l-.038-.01c.408-1.027.01-1.626 0-1.636l.028-.019c.02.01.428.618.01 1.665zM85.374 47.323l-.038-.019c.57-1.227.247-2.073.247-2.083l.038-.01c.02 0 .333.876-.247 2.112zM86.272 47.324l-.038-.019c.571-1.227.447-2.254.447-2.263h.038c.01.01.134 1.046-.447 2.282zM87.63 47.068l-.038-.01c.447-1.18.295-1.893.152-2.102l.028-.019c.029.029.419.637-.142 2.13zM88.626 47.077l-.028-.019c.656-1.037.59-2.14.59-2.15V44.9l.009-.01c.019-.009.494-.19.704.058.247.275.01.998-.676 2.14l-.028-.02c.846-1.407.837-1.911.675-2.092-.171-.21-.58-.076-.647-.047 0 .114.02 1.17-.599 2.149zM89.874 46.65l-.038-.02c.561-1.017.742-1.673.742-1.683l.038.01s-.18.666-.742 1.693zM90.923 46.773l-.029-.029c.59-.684.8-1.112.875-1.35.077-.247.01-.352.01-.352l.029-.02c.019.02.275.41-.885 1.751zM90.241 47.466l-.028-.019c.913-1.531.922-2.397.922-2.397h.038c0 .01 0 .229-.114.628-.104.362-.332.98-.818 1.788zM92.68 46.373h-.037v-.039a.352.352 0 00.304-.114c.257-.285.152-.998.152-1.008l.038-.01c.01.03.105.742-.162 1.037a.35.35 0 01-.294.134zM91.835 46.772l-.038-.019c.723-1.331.827-1.607.827-1.607l.038.01s-.104.285-.827 1.616zM93.812 46.65l-.029-.03c.447-.57.438-1.207.438-1.207h.038c0 .01.01.647-.447 1.236zM93.163 47.077l-.028-.02c.704-1.036.646-1.72.646-1.73h.039c-.01 0 .047.704-.657 1.75zM87.179 47.771l-.038-.01c.114-.78 0-2.748 0-2.767h.038c0 .01.114 1.988 0 2.777zM88.17 47.334l-.02-.038c.647-.333.438-2.378.438-2.397h.038c0 .01.057.523.028 1.075-.038.76-.2 1.208-.485 1.36z" fill="#fff"/><path d="M73.401 51.567h-.038c0-1.607-.732-2.977-.732-2.996l.038-.019c0 .02.732 1.398.732 3.015zM74.275 50.662h-.038c0-.8-.694-1.998-.704-2.017l.038-.019c.01.02.704 1.237.704 2.036zM74.72 49.313h-.038c0-.428-.419-.637-.428-.637l.019-.038c0 .01.447.219.447.675zM75.601 49.313h-.038c0-.428-.409-.666-.409-.675l.02-.038c.009.019.427.266.427.713zM76.71 49.217l-.038-.02c.076-.18.085-.332.028-.456-.085-.18-.257-.247-.257-.247l.01-.038c.01 0 .2.076.285.257.057.152.048.314-.028.504zM78.207 50.662h-.038c0-1.37-.78-2.53-.78-2.54l.028-.018c.01.019.79 1.189.79 2.558zM75.51 49.77h-.039c0-.438-.694-1.094-.703-1.104l.028-.028c.038.019.713.675.713 1.132zM76.402 50.739h-.038c0-1.408-.428-2.054-.428-2.064l.028-.019c-.01 0 .438.666.438 2.083zM77.271 50.368h-.038c0-1.408-.409-2.178-.419-2.178l.039-.02c.009.01.418.78.418 2.198zM78.836 50.673h-.038c.238-2.055-.238-2.682-.247-2.692l.028-.028c.01.01.124.161.22.58.085.38.16 1.056.037 2.14zM79.778 49.654l-.038-.009c.228-.99-.304-2.016-.304-2.026l.038-.019c0 .029.542 1.056.304 2.054zM80.395 48.98l-.038-.019c.4-.77 0-1.778 0-1.788l.038-.019c.01.02.4 1.037 0 1.826zM81.298 48.675l-.029-.019c.428-.637 0-2.016 0-2.035l.039-.01c.019.058.427 1.408-.01 2.065zM80.806 48.277l-.038-.01c.218-.609.18-.884.114-.99-.048-.075-.095-.085-.095-.085v-.038s.076.01.123.095c.076.124.124.4-.104 1.028zM81.962 48.638l-.038-.01c.219-.675 0-2.397 0-2.406l.038-.01c0 .01.219 1.74 0 2.426zM82.386 48.856l-.029-.019c.647-.913.447-3.043.438-3.062h.038c.019.028.219 2.168-.447 3.081zM83.417 47.439l-.028-.029c.418-.513.39-.98.294-1.284-.095-.333-.294-.551-.294-.56l.028-.03c.01.01.809.904 0 1.903zM84.343 46.924l-.038-.01c.4-1.026.01-1.626 0-1.635l.028-.02c.02 0 .41.619.01 1.665zM84.938 47.173l-.038-.019c.552-1.227.248-2.073.248-2.083l.038-.01c0 .01.314.885-.248 2.112zM85.811 47.172l-.038-.018c.552-1.227.438-2.255.438-2.264h.038c.01.019.114 1.056-.438 2.282zM87.124 46.925l-.038-.01c.552-1.474.152-2.092.152-2.102l.029-.019c.019.02.418.637-.143 2.13zM88.1 46.925l-.028-.019c.638-1.036.58-2.14.58-2.15v-.009l.01-.01c.019-.009.475-.19.675.048.248.276.02.999-.656 2.14l-.038-.019c.827-1.407.818-1.911.656-2.102-.171-.2-.551-.066-.628-.038.02.133.038 1.18-.57 2.16zM89.327 46.487l-.038-.01c.552-1.017.723-1.673.723-1.683l.038.01c-.01.01-.19.675-.723 1.683zM90.325 46.63l-.028-.03c.58-.693.78-1.112.856-1.35.076-.247.01-.352.01-.352l.028-.019c.01.02.276.41-.866 1.75zM89.677 47.315l-.038-.019c.903-1.531.903-2.397.903-2.397h.038c0 .01 0 .228-.104.628-.105.37-.324.989-.8 1.788zM92.063 46.23h-.038v-.037a.367.367 0 00.295-.105c.257-.276.152-1.008.152-1.008l.038-.01c.01.03.105.742-.161 1.047a.429.429 0 01-.286.114zM91.228 46.63l-.038-.019c.703-1.331.808-1.607.808-1.607l.038.01c.01-.01-.105.275-.808 1.616zM93.153 46.497l-.028-.019c.438-.57.428-1.208.428-1.208h.038s.01.647-.438 1.227zM92.525 46.926l-.029-.02c.685-1.036.628-1.721.628-1.73h.038c-.01.009.047.703-.637 1.75zM86.684 47.629l-.037-.01c.114-.78 0-2.748 0-2.767h.037c.01.01.115 1.978 0 2.777zM87.665 47.182l-.019-.038c.638-.333.428-2.378.428-2.397h.038c0 .01.058.523.03 1.075-.048.76-.2 1.217-.477 1.36zM76.304 43.376c-.39-.865-1.389-1.293-1.407-1.303l.018-.038c.01 0 1.028.437 1.418 1.322l-.029.019zM77.261 43.32c-.323-.733-1.464-1.541-1.474-1.55l.02-.03c.009.01 1.16.819 1.492 1.56l-.038.02zM77.119 41.893c-.18-.4-.656-.409-.666-.409v-.038c.01 0 .514.01.694.419l-.028.028zM77.945 41.523c-.18-.4-.646-.438-.656-.438v-.038c.01 0 .495.048.685.466l-.029.01zM78.944 40.951c0-.19-.058-.333-.153-.428-.142-.133-.342-.114-.352-.114v-.038c.01 0 .22-.019.38.124.105.095.172.247.172.456h-.047zM78.058 41.978c-.18-.4-1.093-.723-1.103-.723l.01-.038c.038.01.941.324 1.122.742l-.029.02zM79.267 42.492c-.58-1.274-1.245-1.703-1.245-1.703l.018-.028c.01 0 .172.105.419.37.228.248.552.676.846 1.352l-.038.009zM76.873 43.53c-.467-1.047-1.541-1.627-1.55-1.637l.018-.038c.01.01 1.094.59 1.57 1.655l-.038.02zM77.671 43.13c-.323-.733-1.464-1.542-1.474-1.551l.02-.029c.009.01 1.16.818 1.493 1.56l-.038.02z" fill="#fff"/><path d="M77.54 41.713c-.18-.4-.656-.409-.665-.409v-.038c.01 0 .514.01.694.419l-.028.028zM78.353 41.35c-.18-.4-.646-.438-.656-.438v-.047c.01 0 .495.047.685.466l-.029.02zM79.362 40.77c0-.19-.058-.333-.153-.428-.142-.133-.342-.114-.352-.114v-.038c.01 0 .22-.02.38.123.106.095.172.247.172.457h-.047zM78.469 41.788c-.181-.399-1.094-.722-1.104-.722l.01-.038c.038.01.941.323 1.122.742l-.028.018zM82.015 40.086c-.19-.999-1.103-1.712-1.113-1.722l.02-.028c.009.01.931.732 1.122 1.74h-.029v.01zM80.947 41.675c-.561-1.246-1.76-1.987-1.77-1.987l.02-.03c.01.01 1.227.743 1.778 2.008l-.028.01z" fill="#fff"/><path d="M79.952 41.789c-.58-1.284-1.265-1.817-1.274-1.817l.019-.028c.01.01.713.542 1.284 1.835l-.029.01zM81.539 41.409c-.609-1.969-1.313-2.35-1.322-2.359l.019-.038c.01 0 .18.095.437.428.238.314.58.904.904 1.94l-.038.029zM81.36 41.494c-.56-1.246-1.759-1.988-1.768-1.988l.019-.029c.01.01 1.227.742 1.778 2.007l-.028.01zM79.7 42.31c-.581-1.274-1.247-1.702-1.247-1.702l.02-.028c.009 0 .17.105.418.37.228.248.551.676.846 1.351l-.038.01zM80.37 41.607c-.58-1.284-1.265-1.816-1.274-1.816l.019-.029c.01.01.713.533 1.284 1.836l-.029.01zM81.935 41.227c-.608-1.968-1.312-2.349-1.322-2.358l.02-.038c.009 0 .18.095.437.428.238.313.58.903.903 1.94l-.038.028zM84.54 36.53l-.039-.01c.181-.637-.038-1.065-.247-1.303-.228-.256-.504-.38-.504-.39l.019-.037c.01.01 1.122.485.77 1.74zM82.347 39.2h-.038c.057-.874-.723-1.626-.733-1.626l.029-.028s.79.77.742 1.655zM83.059 38.545l-.038-.01c.142-.76-.818-1.845-.828-1.854l.029-.029c.047.057.99 1.113.837 1.893zM82.397 38.384c-.048-.647-.181-.875-.295-.95-.076-.048-.124-.039-.124-.039l-.01-.038s.077-.019.153.038c.114.086.266.314.314.98l-.038.01zM84.077 38.686c-.076-.713-.97-2.188-.98-2.206l.03-.02c.009.02.912 1.503.988 2.226h-.038z" fill="#fff"/><path d="M84.172 39.154l-.038-.01c.238-1.093-.818-2.957-.827-2.976l.038-.02c0 .02 1.055 1.903.827 3.006zM82.414 39.907c-.19-1-1.104-1.712-1.113-1.722l.019-.029c.01.01.932.733 1.122 1.741h-.028v.01zM82.743 39.03h-.038c.057-.875-.723-1.627-.732-1.627l.028-.028c.02 0 .809.751.742 1.655zM83.479 38.81l-.038-.009c.142-.76-.818-1.845-.828-1.854l.029-.029c.038.057.98 1.113.837 1.893zM82.81 38.213c-.047-.647-.18-.875-.294-.952-.076-.047-.124-.038-.124-.038l-.01-.038s.077-.019.153.038c.114.086.266.314.314.98l-.038.01zM84.493 38.052c-.076-.713-.97-2.188-.98-2.207l.03-.019c.009.02.912 1.503.988 2.226h-.038zM85.252 37.919c-.133-1.113-1.74-2.54-1.75-2.55l.029-.028c.018.02 1.626 1.437 1.759 2.568h-.038v.01zM85.046 36.606c-.038-.656-.38-.989-.656-1.15-.304-.181-.599-.2-.599-.2v-.038c.01 0 1.217.085 1.294 1.388h-.038z" fill="#fff"/><path d="M84.953 36.055c-.41-1.028-1.104-1.199-1.113-1.199l.01-.038c.009 0 .732.171 1.14 1.218l-.037.019zM85.156 35.682c-.048-1.103-.656-1.493-.666-1.493l.02-.029c.009 0 .627.4.684 1.522h-.038zM85.402 34.313h-.038c.02-1.35-.618-2.007-.618-2.007l.029-.028c.01 0 .646.666.627 2.035z" fill="#fff"/><path d="M85.51 34.513c-.076-1.255-.495-1.845-.723-1.978l.02-.029c.028.02.646.419.741 2.017l-.038-.01zM85.562 35.379c-.332-1.028-.96-1.56-1.246-1.703l.02-.038c.009 0 .836.418 1.255 1.721l-.029.02zM88.554 31.565l-.038-.01c.219-1.768-.133-2.567-.133-2.567l.038-.02c0 .01.085.2.152.619.057.38.105 1.036-.019 1.978zM87.426 31.155l-.038-.01c.181-.703-.085-1.274-.085-1.283l.038-.02c0 .01.266.59.085 1.313zM88.376 31.355c-.285-1.122-.599-1.731-.608-1.74l.038-.02c0 .01.323.61.608 1.741l-.038.019zM90.263 29.263l-.029-.028a.379.379 0 00.143-.286c0-.39-.57-.837-.58-.837l.028-.028c.029.019.58.466.58.875.01.104-.037.209-.142.304z" fill="#fff"/><path d="M90.315 29.586l-.01-.038c.115-.047.2-.114.239-.228.123-.371-.267-.97-.267-.98l.029-.019c.019.029.409.628.266 1.018a.469.469 0 01-.257.247zM91.268 28.664a2.136 2.136 0 00-.504-1.19l.028-.028c0 .01.447.466.514 1.208l-.038.01zM91.09 29.425c-.19-1.236-.703-1.693-.703-1.702l.028-.029c.01.01.523.476.723 1.722l-.047.01zM89.345 30.651l-.038-.01c.256-.874.275-1.34.247-1.588-.038-.256-.124-.323-.133-.323l.019-.038c.019.019.409.257-.095 1.96zM89.725 30.27h-.037c.114-1.512.095-1.807.095-1.816h.038c.019.01.019.313-.096 1.816z" fill="#fff"/><path d="M91.064 30.013l-.038-.01c.219-1.226-.104-1.825-.114-1.835l.038-.019s.343.628.114 1.864zM89.242 30.736c-.038-.913-.17-1.36-.276-1.579-.114-.237-.228-.256-.228-.256l.01-.038c.019 0 .466.095.542 1.883h-.048v-.01zM89.899 30.11c-.39-1.465-.495-1.741-.495-1.741l.038-.01s.105.286.495 1.75h-.038zM86.224 33.494h-.038c.018-1.35-.505-2.235-.514-2.244l.028-.02c.02 0 .543.904.523 2.264zM86.92 32.754l-.038-.01c.18-1.217-.324-2.197-.333-2.206l-.01-.01.01-.01c.019-.018.37-.38.656-.246.333.161.418.913.247 2.235l-.038-.01c.2-1.617-.019-2.083-.238-2.197-.247-.114-.551.171-.608.228.085.134.523 1.075.352 2.226zM87.876 31.858h-.038c.095-1.16-.01-1.835-.01-1.835l.038-.01s.114.685.01 1.845z" fill="#fff"/><path d="M86.306 34c-.21-.76-1.113-2.51-1.122-2.53l.038-.019c.01.02.913 1.77 1.132 2.54l-.048.01zM86.603 33.637l-.029-.029c.457-.58-.57-2.358-.58-2.377l.038-.02s.257.457.466.98c.276.714.314 1.199.105 1.446zM86.223 34.303c-.418-1.284-1.208-1.96-1.217-1.96l.028-.028c.01.01.8.684 1.227 1.978l-.038.01z" fill="#fff"/><path d="M87.037 33.21c-.476-1.17-1.075-1.579-1.322-1.645l.01-.038c.028.01.741.19 1.35 1.664l-.038.02zM87.765 32.525c-.228-1.208-1.027-1.97-1.037-1.979l-.01-.01.01-.009c.01-.019.229-.475.552-.437.37.047.694.732.96 2.026l-.037.01c-.333-1.599-.695-1.97-.933-1.998h-.038c-.247 0-.437.342-.466.418.086.086.818.847 1.037 1.988h-.038v-.01zM89.218 31.705c-.37-1.75-.95-2.387-.96-2.396l.028-.029c.01.01.153.162.343.542.18.343.428.951.627 1.874l-.038.01zM87.194 34.037c-.448-.657-1.884-2.017-1.893-2.026l.028-.029c.02.02 1.446 1.38 1.903 2.035l-.038.02zM87.647 33.019l-.038-.01c.248-.694-1.293-2.044-1.312-2.054l.028-.028s.4.351.752.77c.485.57.675 1.018.57 1.322zM70.2 30.338c-.608 0-.874-.2-.893-.21l.028-.028c.2.152.904.361 2.102-.01l.01.039c-.514.152-.933.209-1.246.209zM73.56 22.157c-1.38-.085-2.492-.98-2.501-.99l.028-.028c.01.01 1.113.885 2.483.98l-.01.038zM72.872 20.73c-1.418-.095-2.16-.58-2.169-.58l.02-.029c.009.01.741.476 2.149.57v.039zM72.998 22.357c-.79 0-1.303-.095-1.617-.19-.409-.115-.551-.248-.56-.257l.028-.029c.01.01.599.533 2.663.428v.038c-.18 0-.352.01-.514.01zM72.53 23.727c-.885 0-1.645-.486-1.655-.486l.019-.028c.01.01.99.618 1.997.447l.01.038a2.534 2.534 0 01-.371.029zM71.943 22.613c-.6 0-1.123-.247-1.123-.257l.02-.038c.009.01.979.476 1.778.124l.019.038a1.834 1.834 0 01-.694.133zM72.024 24.44c-.219 0-.428-.03-.609-.068-.418-.085-.76-.228-.76-.228l.018-.038c.02.01 1.36.542 2.026.143l.02.028c-.21.114-.448.162-.695.162z" fill="#fff"/><path d="M72.547 23.868c-.17 0-.266-.038-.332-.085-.086-.067-.086-.133-.086-.133h.038s.01.066.076.104c.105.086.371.133.999-.057l.01.038c-.324.095-.543.133-.705.133zM72.537 25.01c-.789 0-1.873-.22-1.883-.22l.01-.038c.019 0 1.721.343 2.397.162l.01.038a2.073 2.073 0 01-.534.057zM71.966 25.78c-.723 0-1.341-.095-1.35-.105l.009-.038c.019 0 2.13.352 3.081-.247l.02.029c-.448.276-1.142.361-1.76.361zM71.34 26.674c-.6 0-1.008-.427-1.018-.437l.029-.028c.01.009.818.865 1.845.123l.019.029c-.314.238-.609.313-.875.313zM70.878 27.406c-.58 0-.894-.247-.894-.247l.029-.028c.01 0 .58.437 1.626.104l.01.038a2.473 2.473 0 01-.77.133zM70.588 28.149c-.532 0-.846-.143-.856-.143l.02-.038c.285.133 1.084.276 2.092-.105l.01.038a3.31 3.31 0 01-1.266.248zM70.007 29.127c-.323 0-.523-.038-.532-.038l.01-.038c.009 0 1.026.19 2.291-.295l.01.038a4.875 4.875 0 01-1.779.333zM71.87 29.737c-.904 0-2.435-.2-2.454-.2l.01-.038c.019 0 1.978.247 2.758.19v.038c-.086.01-.2.01-.314.01zM71.464 21.025a.477.477 0 01-.228-.057.508.508 0 01-.248-.314l.038-.01s.057.2.229.286c.123.066.275.066.456 0l.01.038a.627.627 0 01-.257.057zM73.535 22.605c-1.38-.086-2.492-.98-2.502-.99l.029-.028c.01.01 1.112.884 2.482.98l-.01.038zM71.322 20.235c-.37 0-.58-.095-.58-.095l.02-.038c.009 0 .532.247 1.378-.057l.01.038c-.324.114-.6.152-.828.152zM72.84 21.635c-1.417-.096-2.159-.58-2.168-.58l.019-.03c.01.01.742.476 2.15.572v.038z" fill="#fff"/><path d="M72.971 22.347c-.79 0-1.303-.096-1.617-.19-.409-.115-.552-.248-.561-.257l.028-.029c.01.01.6.533 2.664.428v.038c-.181.01-.352.01-.514.01zM72.5 23.279c-.884 0-1.645-.485-1.654-.485l.019-.029c.01.01.989.618 1.997.447l.01.038a2.44 2.44 0 01-.371.029zM71.915 23.964c-.599 0-1.122-.247-1.122-.257l.019-.038c.01.01.98.476 1.779.124l.019.038a1.87 1.87 0 01-.695.133zM71.993 25.332c-.22 0-.428-.028-.61-.066-.418-.086-.76-.228-.76-.228l.02-.038c.018.009 1.36.542 2.025.142l.019.029c-.21.123-.447.161-.694.161zM71.16 24.316c-.17 0-.266-.038-.332-.086-.086-.066-.086-.133-.086-.133h.038s.01.067.076.105c.105.085.38.133.999-.057l.01.038a2.239 2.239 0 01-.704.133z" fill="#fff"/><path d="M72.963 25.457c-.79 0-1.873-.219-1.883-.219l.01-.038c.019 0 1.721.343 2.396.162l.01.038c-.143.048-.333.057-.533.057zM71.923 26.227c-.723 0-1.341-.095-1.35-.105l.009-.038c.019 0 2.13.352 3.081-.247l.02.029c-.448.276-1.142.361-1.76.361zM71.313 27.12c-.6 0-1.009-.427-1.018-.437l.028-.028c.01.01.818.865 1.846.123l.019.029c-.314.238-.61.314-.875.314zM70.851 27.853c-.58 0-.894-.247-.894-.247l.029-.029c.01 0 .58.438 1.626.105l.01.038a2.52 2.52 0 01-.77.133zM70.55 28.606c-.533 0-.847-.143-.857-.143l.02-.038c.285.133 1.084.276 2.092-.105l.01.038c-.486.181-.923.248-1.266.248zM69.974 29.584c-.323 0-.523-.038-.533-.038l.01-.038c.01 0 1.027.19 2.292-.295l.01.038a5.159 5.159 0 01-1.779.333zM71.837 30.184c-.904 0-2.435-.2-2.454-.2l.01-.038c.018 0 1.978.247 2.757.19v.038c-.085.01-.19.01-.313.01zM69.522 32.362c-.162 0-.276-.038-.362-.114-.228-.228-.01-.685 0-.704l.01-.01h.01c.009 0 1.112.134 2.187-.446l.019.038c-1.027.561-2.074.466-2.197.447-.038.076-.19.456 0 .647.171.17.685.218 2.14-.533l.019.038c-.837.419-1.446.637-1.826.637zM69.136 32.96l-.009-.037c.01 0 .675-.134 1.73-.619l.02.038c-1.065.486-1.731.619-1.74.619zM69.317 34.197c-.123 0-.18-.039-.19-.048l.029-.029s.085.077.351.01c.248-.057.685-.238 1.408-.78l.02.029c-.914.694-1.39.818-1.618.818zM69.239 33.523h-.057v-.038c.01 0 .875.057 2.463-.751l.019.038c-.837.428-1.465.608-1.845.694a3.92 3.92 0 01-.58.057zM69.72 35.558c-.248 0-.467-.048-.486-.057l.01-.038c.01 0 .713.152 1.018-.086a.376.376 0 00.133-.295h.038a.43.43 0 01-.143.324c-.152.123-.37.152-.57.152zM69.191 35.025l-.01-.038s.286-.095 1.665-.723l.02.038c-1.38.628-1.665.723-1.675.723zM69.43 36.632h-.086v-.038c.01 0 .637.057 1.236-.361l.02.028c-.476.333-.98.371-1.17.371zM69.424 36.196c-.085 0-.124-.01-.133-.01l.01-.038c.009 0 .684.095 1.76-.523l.018.038c-.57.333-1.027.457-1.303.504-.152.02-.276.029-.352.029zM70.406 31.078h-.095a8.243 8.243 0 01-1.075-.095l.01-.038c.019 0 2.045.352 2.416-.276l.028.02c-.162.247-.59.39-1.284.39zM70.164 30.784c-.61 0-.875-.2-.895-.21l.03-.028c.199.153.903.362 2.101-.01l.01.039c-.505.162-.923.21-1.246.21z" fill="#fff"/><path d="M69.487 32.81c-.162 0-.276-.038-.362-.114-.228-.228-.01-.685 0-.704l.01-.01h.01c.009 0 1.112.134 2.187-.447l.019.038c-1.028.562-2.074.466-2.197.447-.038.077-.19.457 0 .647.17.171.684.219 2.14-.532l.019.038c-.837.418-1.437.637-1.826.637zM69.101 33.408l-.01-.038c.01 0 .676-.133 1.732-.618l.019.038c-1.056.485-1.731.618-1.74.618zM69.296 34.646c-.124 0-.18-.038-.18-.047l.028-.029s.085.076.352.01c.247-.057.684-.238 1.407-.78l.02.028c-.933.695-1.408.818-1.627.818zM69.211 33.97h-.057v-.038c.01 0 .875.057 2.464-.751l.019.038c-.837.428-1.465.608-1.846.694a4.013 4.013 0 01-.58.057zM69.68 36.005c-.247 0-.466-.047-.485-.057l.01-.038c.01 0 .713.152 1.017-.086a.376.376 0 00.134-.294h.038a.43.43 0 01-.143.323c-.143.124-.361.152-.57.152zM69.164 35.472l-.01-.038s.286-.095 1.665-.723l.019.038c-1.38.638-1.674.723-1.674.723zM69.39 37.079h-.085v-.038c.01 0 .637.057 1.236-.362l.02.029c-.467.342-.98.37-1.17.37zM69.391 36.641c-.086 0-.124-.01-.133-.01l.01-.037c.009 0 .684.095 1.759-.523l.019.038c-.57.332-1.027.456-1.303.504a3.003 3.003 0 01-.352.028zM70.365 31.526h-.095a8.243 8.243 0 01-1.075-.095l.01-.038c.019 0 2.045.352 2.416-.276l.028.019c-.162.257-.59.39-1.284.39zM29.874 51.72h-.038c0-1.617.742-2.996.751-3.015l.038.019c-.019.01-.751 1.379-.751 2.996zM28.976 50.816h-.038c0-.808.722-2.016.732-2.035l.028.019c-.01.01-.723 1.217-.723 2.016zM28.53 49.466h-.038c0-.457.457-.666.457-.676l.019.038c-.01 0-.438.2-.438.638zM27.622 49.465h-.038c0-.456.428-.703.428-.703l.019.038s-.409.228-.409.666zM26.447 49.36a.633.633 0 01-.038-.484.465.465 0 01.295-.257l.01.038s-.191.067-.267.247c-.057.124-.048.276.038.457h-.038zM24.952 50.816h-.038c0-1.39.799-2.55.808-2.568l.029.019c0 .019-.799 1.179-.799 2.548zM27.712 49.922h-.038c0-.447.704-1.103.732-1.131l.029.028c-.01-.01-.723.656-.723 1.103zM26.804 50.882h-.038c0-.742.123-1.265.228-1.57.105-.341.228-.503.228-.503l.029.019s-.447.647-.447 2.054zM25.903 50.513h-.038c0-1.417.419-2.197.428-2.197l.038.019c-.01.01-.428.77-.428 2.178zM24.273 50.816c-.124-1.075-.058-1.76.038-2.14.085-.419.218-.571.228-.58l.028.028c-.01.01-.485.637-.247 2.692h-.047zM23.298 49.808c-.238-1.008.314-2.045.323-2.054l.038.019c-.01.01-.551 1.036-.314 2.025l-.047.01zM22.663 49.132c-.419-.79-.01-1.807 0-1.816l.038.019c0 .01-.41 1.008 0 1.788l-.038.01zM21.73 48.818c-.237-.342-.228-.894-.17-1.274.056-.419.17-.78.17-.78l.038.01c-.009.018-.437 1.398 0 2.035l-.038.01zM22.25 48.42c-.237-.619-.19-.904-.114-1.028.057-.085.124-.095.124-.095v.038-.019.02s-.067.009-.095.085c-.076.114-.105.38.114.99l-.029.009zM21.058 48.79c-.228-.685 0-2.407 0-2.426l.038.01c0 .019-.228 1.74 0 2.406l-.038.01zM20.618 49c-.675-.913-.466-3.063-.466-3.082h.038c0 .02-.21 2.15.456 3.063l-.028.019zM19.561 47.582c-.827-.998-.01-1.892 0-1.902l.029.029c-.01.01-.809.875 0 1.845l-.029.028zM18.63 47.07c-.42-1.047 0-1.665 0-1.665l.028.019c0 .01-.41.599 0 1.636l-.029.01zM18.01 47.325c-.58-1.246-.247-2.102-.247-2.111l.038.01c-.105.294-.21 1.103.247 2.082l-.038.02zM17.115 47.326c-.57-1.237-.457-2.273-.447-2.283h.038c0 .01-.114 1.046.447 2.264l-.038.019zM15.763 47.069c-.57-1.494-.171-2.112-.152-2.131l.028.019c-.143.219-.295.923.152 2.102l-.028.01zM14.766 47.078c-.618-.98-.609-2.035-.6-2.159-.075-.028-.475-.161-.646.048-.152.18-.162.704.675 2.092l-.028.02c-.685-1.142-.913-1.865-.675-2.14.209-.248.684-.067.703-.058l.01.01v.01c0 .009-.067 1.112.59 2.149l-.029.028zM13.523 46.65c-.561-1.027-.742-1.683-.742-1.693l.038-.01c0 .01.181.666.742 1.684l-.038.02zM12.476 46.774c-1.16-1.35-.903-1.73-.884-1.74l.028.019s-.066.085.01.352c.076.237.276.665.875 1.35l-.029.02zM13.15 47.469c-.484-.808-.713-1.417-.817-1.798-.114-.408-.114-.618-.114-.627h.038c0 .01 0 .875.922 2.397l-.028.028zM10.703 46.373a.4.4 0 01-.294-.123c-.267-.295-.172-1.008-.162-1.037l.038.01c0 .01-.105.723.152 1.008.086.085.18.123.304.114v.038c-.019-.01-.019-.01-.038-.01zM11.55 46.774c-.723-1.342-.837-1.617-.837-1.617l.038-.01s.114.276.827 1.608l-.028.019zM9.572 46.651c-.456-.58-.447-1.227-.447-1.236h.038c0 .01-.01.637.438 1.207l-.029.029zM10.227 47.079c-.37-.552-.523-.99-.59-1.265-.076-.304-.057-.476-.057-.476h.038c0 .01-.057.695.647 1.731l-.038.01zM16.209 47.772c-.114-.79 0-2.758 0-2.777h.038c0 .02-.114 1.988 0 2.768l-.038.01zM15.22 47.334c-.286-.143-.447-.6-.485-1.351-.029-.561.028-1.075.028-1.075h.038c0 .02-.219 2.064.438 2.397l-.02.029zM29.434 51.72h-.038c0-1.618.742-2.997.752-3.016l.038.02c-.02.009-.752 1.378-.752 2.995zM28.522 50.817h-.038c0-.809.723-2.017.733-2.036l.028.02c-.01.009-.723 1.217-.723 2.016z" fill="#fff"/><path d="M28.075 49.465h-.038c0-.457.457-.666.457-.675l.019.038c-.01 0-.438.2-.438.637zM27.169 49.465h-.038c0-.456.428-.703.428-.703l.019.038c.01 0-.41.228-.41.666zM25.984 49.36a.634.634 0 01-.038-.485.465.465 0 01.295-.257l.01.038s-.19.066-.267.247c-.057.124-.048.276.038.457h-.038zM24.493 50.816h-.038c0-1.388.799-2.549.809-2.568l.028.02c0 .018-.799 1.179-.799 2.548zM27.257 49.922h-.038c0-.447.704-1.104.732-1.132l.029.028c-.029-.01-.723.657-.723 1.104zM26.347 50.883h-.038c0-.742.123-1.265.228-1.57.105-.342.228-.503.228-.503l.029.019s-.447.646-.447 2.054zM25.454 50.512h-.038c0-1.417.418-2.197.428-2.197l.038.019c-.01.01-.428.77-.428 2.178zM23.816 50.815c-.124-1.075-.058-1.76.038-2.14.085-.418.218-.57.228-.58l.028.029c-.01.009-.485.637-.247 2.691h-.047zM22.839 49.808c-.238-1.009.314-2.045.323-2.055l.038.02c-.01.009-.552 1.036-.314 2.025l-.047.01zM22.221 49.133c-.418-.79-.01-1.807 0-1.817l.038.02c0 .009-.409 1.007 0 1.787l-.038.01zM21.287 48.82c-.238-.343-.228-.895-.171-1.275.057-.419.171-.78.171-.78l.038.01c-.01.018-.437 1.398 0 2.035l-.038.01zM21.805 48.419c-.238-.618-.19-.904-.114-1.027.057-.086.123-.096.123-.096v.038-.019.02s-.066.009-.095.085c-.076.114-.104.38.115.99l-.029.009zM20.617 48.79c-.228-.685 0-2.406 0-2.425l.038.01c0 .018-.228 1.74 0 2.406l-.038.01zM20.149 49c-.675-.914-.466-3.063-.466-3.083h.038c0 .02-.21 2.15.456 3.063l-.028.02zM19.114 47.582c-.827-.998-.01-1.892 0-1.902l.028.029c-.009.01-.808.875 0 1.845l-.028.028zM18.163 47.07c-.419-1.047 0-1.665 0-1.665l.028.019c0 .01-.409.6 0 1.636l-.028.01zM17.553 47.325c-.58-1.246-.247-2.102-.247-2.111l.038.01c-.105.294-.21 1.103.247 2.082l-.038.02zM16.668 47.326c-.571-1.237-.457-2.273-.447-2.283h.038c0 .01-.114 1.046.447 2.264l-.038.019zM15.31 47.068c-.571-1.493-.171-2.111-.152-2.13l.028.019c-.143.218-.295.922.152 2.102l-.028.01zM14.317 47.078c-.618-.98-.609-2.035-.6-2.159-.075-.028-.475-.161-.646.048-.152.18-.162.704.675 2.092l-.028.02c-.685-1.142-.913-1.865-.676-2.14.21-.248.685-.067.704-.058l.01.01v.01c0 .009-.067 1.112.59 2.149l-.03.028zM13.06 46.65c-.56-1.027-.742-1.683-.742-1.692l.038-.01c0 .01.181.666.742 1.684l-.038.019zM12.027 46.774c-1.16-1.35-.903-1.731-.884-1.74l.028.018s-.066.086.01.352c.076.238.275.666.875 1.35l-.029.02zM12.698 47.468c-.485-.808-.714-1.417-.818-1.797-.114-.409-.114-.618-.114-.628h.038c0 .01 0 .875.922 2.397l-.028.029zM10.248 46.374a.4.4 0 01-.295-.123c-.266-.295-.17-1.009-.161-1.037l.038.01c0 .009-.105.722.152 1.008.086.085.18.123.304.114v.038c-.01-.01-.019-.01-.038-.01zM11.1 46.774c-.722-1.341-.836-1.617-.836-1.617l.038-.01s.114.276.827 1.608l-.028.019zM9.768 47.078c-.37-.552-.523-.989-.59-1.265-.076-.304-.057-.475-.057-.475h.038c0 .01-.057.694.647 1.73l-.038.01zM15.756 47.772c-.114-.79 0-2.758 0-2.777h.038c0 .02-.114 1.988 0 2.768l-.038.01zM14.77 47.334c-.285-.142-.447-.599-.485-1.35-.028-.562.029-1.075.029-1.075h.038c0 .019-.219 2.064.437 2.397l-.019.028zM27.073 43.376l-.038-.019c.4-.884 1.408-1.312 1.417-1.322l.02.038c-.01.01-1.018.438-1.399 1.303zM26.11 43.32l-.038-.02c.333-.741 1.475-1.55 1.494-1.559l.018.029c0 .009-1.15.817-1.474 1.55zM26.268 41.895l-.038-.019c.19-.418.695-.418.695-.418v.038s-.485.01-.657.4zM25.438 41.522l-.038-.02c.19-.418.676-.465.685-.465v.038c0 .01-.475.057-.647.447zM25.32 41.979l-.039-.02c.19-.418 1.085-.732 1.123-.741l.01.038c.009 0-.914.314-1.095.723zM26.518 43.53l-.038-.02c.466-1.065 1.56-1.645 1.57-1.654l.019.038c-.01 0-1.084.59-1.55 1.636zM25.706 43.13l-.038-.02c.333-.741 1.474-1.55 1.493-1.56l.02.03c-.01.018-1.142.817-1.475 1.55z" fill="#fff"/><path d="M25.845 41.712l-.038-.02c.19-.418.694-.418.694-.418v.038s-.485.01-.656.4zM25.022 41.35l-.038-.019c.19-.418.676-.466.685-.466v.038c.01 0-.466.048-.647.447zM24.913 41.79l-.038-.02c.19-.418 1.084-.732 1.122-.741l.01.038c0 .01-.913.323-1.094.722zM24.438 40.952H24.4c0-.2.058-.362.172-.457.161-.143.37-.124.38-.124v.038s-.2-.018-.352.115c-.114.095-.162.237-.162.428zM22.442 41.675l-.038-.02c.571-1.255 1.77-1.997 1.779-2.006l.019.028c0 .02-1.208.742-1.76 1.998z" fill="#fff"/><path d="M24.118 42.493l-.038-.02a5.045 5.045 0 01.847-1.35c.247-.257.409-.37.418-.37l.02.028c-.01.019-.686.428-1.247 1.712zM23.444 41.789l-.038-.019c.58-1.294 1.275-1.826 1.284-1.836l.02.029c0 .019-.695.542-1.266 1.826zM21.85 41.408l-.038-.01c.324-1.046.666-1.626.904-1.94.247-.342.428-.428.438-.428l.019.038c-.01-.01-.704.371-1.322 2.34zM21.382 40.086l-.038-.01c.19-1.017 1.112-1.74 1.122-1.74l.02.029c0 .01-.914.723-1.104 1.721zM21.048 39.202c-.057-.894.732-1.655.742-1.664l.028.028c-.01.01-.78.752-.732 1.627l-.038.009z" fill="#fff"/><path d="M24.02 40.771h-.038c0-.21.058-.361.172-.457.161-.142.37-.123.38-.123v.038s-.2-.02-.352.114c-.104.095-.162.238-.162.428zM22.032 41.494l-.038-.019c.57-1.255 1.77-1.997 1.779-2.007l.019.029c0 .01-1.199.742-1.76 1.997zM23.702 42.312l-.038-.019a5.045 5.045 0 01.846-1.35c.248-.257.41-.371.419-.371l.019.028c0 .01-.666.428-1.246 1.712zM23.026 41.608l-.038-.019c.58-1.293 1.275-1.826 1.284-1.835l.02.028c0 .01-.686.542-1.266 1.826zM21.452 41.228l-.038-.01c.323-1.046.666-1.626.904-1.94.247-.342.428-.428.428-.428l.019.038c0-.01-.704.362-1.313 2.34zM18.836 36.529c-.352-1.246.761-1.731.77-1.731l.02.038c-.01.01-1.085.466-.742 1.683l-.048.01zM20.326 38.545c-.077-.408.152-.903.37-1.245.229-.371.466-.638.476-.647l.029.028c-.01.01-.97 1.085-.828 1.855l-.047.01zM20.99 38.384h-.039c.048-.666.2-.903.314-.98.086-.057.152-.037.152-.037l-.01.038.01-.02-.01.02s-.056-.02-.123.038c-.114.076-.247.294-.295.941zM19.313 38.688h-.038c.077-.723.98-2.207.99-2.226l.028.02c-.01.018-.913 1.502-.98 2.206z" fill="#fff"/><path d="M19.215 39.155c-.247-1.113.818-2.987.837-3.006l.038.02c-.01.018-1.065 1.882-.828 2.976l-.047.01zM20.972 39.906l-.038-.01c.19-1.017 1.112-1.74 1.122-1.74l.019.028c0 .02-.923.723-1.103 1.722zM20.648 39.031c-.058-.894.732-1.655.741-1.664l.029.028c-.01.01-.78.752-.732 1.627l-.038.01zM19.913 38.812c-.076-.41.153-.904.371-1.246a4.82 4.82 0 01.476-.647l.028.029c-.01.009-.97 1.084-.827 1.854l-.048.01zM20.581 38.213h-.038c.047-.665.2-.903.314-.98.085-.056.152-.037.152-.037l-.01.038.01-.02-.01.02s-.057-.02-.123.038c-.105.066-.247.285-.295.941zM18.893 38.051h-.038c.077-.722.98-2.206.99-2.225l.028.019c-.01.029-.903 1.503-.98 2.206zM18.134 37.919h-.038c.133-1.122 1.74-2.559 1.76-2.568l.028.028c-.02.01-1.617 1.427-1.75 2.54zM18.438 36.054l-.038-.01c.419-1.045 1.132-1.217 1.142-1.217l.01.038c-.01 0-.714.162-1.114 1.19zM18.222 35.682h-.038c.047-1.122.675-1.522.684-1.522l.02.029s-.61.38-.666 1.493z" fill="#fff"/><path d="M18.325 36.606h-.038c.076-1.293 1.275-1.388 1.294-1.388v.038c-.01 0-1.18.095-1.256 1.35zM17.987 34.313c-.02-1.37.628-2.026.628-2.036l.028.029c-.228.228-.637.922-.618 2.007h-.038z" fill="#fff"/><path d="M17.858 34.511h-.038c.086-1.588.714-1.997.742-2.016l.02.029c-.22.142-.648.732-.724 1.987zM17.827 35.378l-.038-.01c.418-1.293 1.246-1.72 1.255-1.72l.02.037c-.276.124-.904.666-1.237 1.693zM17.157 33.494c-.02-1.36.513-2.264.513-2.273l.029.019c-.01.01-.533.904-.514 2.245l-.028.01zM17.089 33.998l-.038-.01c.219-.76 1.122-2.52 1.132-2.54l.038.02c-.01.01-.913 1.769-1.132 2.53zM16.789 33.637c-.2-.247-.162-.732.104-1.427.2-.523.457-.97.466-.98l.038.02c-.01.019-1.036 1.797-.58 2.377l-.028.01zM17.175 34.303l-.038-.01c.418-1.293 1.217-1.968 1.227-1.978l.028.029c-.019.009-.799.684-1.217 1.959z" fill="#fff"/><path d="M16.35 33.209l-.038-.02c.6-1.473 1.313-1.654 1.351-1.664l.01.038c-.248.058-.837.476-1.322 1.646zM16.2 34.036l-.028-.02c.447-.655 1.883-2.025 1.902-2.035l.029.029c-.029.01-1.446 1.37-1.903 2.026zM16.473 32.754c-.171-1.15.267-2.101.333-2.225-.057-.057-.37-.343-.609-.228-.218.104-.428.57-.237 2.197l-.038.01c-.162-1.323-.086-2.074.247-2.236.285-.133.647.228.656.247l.01.01-.01.01c-.01.009-.514.998-.333 2.206l-.019.01zM15.503 31.86c-.095-1.16.01-1.845.01-1.845l.037.01c0 .01-.104.685-.01 1.835h-.037zM14.832 31.566c-.114-.933-.076-1.589-.02-1.97.067-.418.153-.608.153-.617l.038.018c0 .01-.352.8-.133 2.569h-.038z" fill="#fff"/><path d="M15.954 31.155c-.181-.713.085-1.303.085-1.303l.038.02c0 .009-.266.58-.086 1.283h-.037z" fill="#fff"/><path d="M15.622 32.526l-.038-.01c.219-1.14.932-1.902 1.037-1.987-.038-.076-.229-.419-.466-.419h-.038c-.248.029-.59.4-.933 1.997l-.037-.01c.266-1.302.59-1.977.96-2.025.314-.038.542.419.552.438l.01.01-.01.009c-.02.019-.818.789-1.037 1.997zM15.009 31.355l-.038-.01c.285-1.132.608-1.74.608-1.74l.038.018c-.01 0-.323.61-.608 1.732zM14.151 30.737h-.038c.076-1.769.523-1.873.542-1.883l.01.038s-.105.029-.228.257c-.114.228-.248.675-.286 1.588zM14.165 31.708l-.038-.01c.2-.912.447-1.53.628-1.873.2-.38.342-.532.342-.542l.029.028c0 .01-.59.647-.961 2.397zM12.112 28.664h-.038c.067-.742.504-1.208.514-1.208l.028.029s-.437.466-.504 1.179zM14.052 30.652c-.514-1.703-.114-1.94-.095-1.95l.019.038-.01-.019.01.02s-.095.066-.133.323c-.038.247-.02.722.247 1.588h-.038zM13.077 29.586c-.124-.047-.22-.133-.248-.247-.123-.38.257-.99.267-1.018l.028.02c0 .009-.4.617-.266.979.038.105.114.18.238.228l-.02.038zM13.67 30.271c-.114-1.512-.095-1.817-.095-1.817h.039s-.01.305.095 1.817h-.038zM12.326 30.014c-.114-.647-.085-1.113-.028-1.408.057-.304.143-.457.143-.457l.038.02c0 .009-.333.608-.114 1.835l-.039.01z" fill="#fff"/><path d="M13.113 29.263a.414.414 0 01-.162-.324c0-.409.57-.856.58-.875l.029.029c-.01.01-.58.456-.58.837 0 .114.047.218.142.285l-.01.048zM13.48 30.109l-.039-.01c.39-1.464.495-1.74.495-1.75l.038.01c0 .01-.105.285-.495 1.75zM12.292 29.425l-.038-.01c.095-.646.285-1.074.428-1.331.152-.266.276-.39.285-.39l.029.029c0 .01-.504.466-.704 1.702zM15.74 33.019c-.104-.295.086-.742.571-1.323.362-.418.752-.77.752-.77l.028.029c-.019.019-1.569 1.37-1.312 2.054l-.038.01zM31.556 30.185c-.114 0-.228 0-.314-.01v-.038c.79.067 2.74-.19 2.758-.19l.01.038c-.02 0-1.56.2-2.454.2z" fill="#fff"/><path d="M33.19 30.338c-.315 0-.733-.058-1.247-.22l.01-.037c1.512.456 2.102.019 2.102.01l.028.028c-.028.019-.285.219-.894.219zM33.866 32.364c-.38 0-.989-.22-1.826-.638l.019-.038c1.455.742 1.96.704 2.14.533.19-.19.038-.58 0-.647-.124.02-1.18.095-2.197-.447l.019-.038c1.075.58 2.178.447 2.188.447h.009l.01.01c.009.019.228.475 0 .703-.086.076-.2.115-.362.115zM34.266 32.962c-.01 0-.685-.134-1.74-.619l.018-.038c1.056.486 1.731.619 1.731.619l-.01.038zM34.068 34.2c-.228 0-.704-.124-1.617-.809l.02-.029c.732.552 1.169.723 1.407.78.257.067.352-.01.352-.01l.028.03c-.01 0-.057.038-.19.038zM34.15 33.524a2.79 2.79 0 01-.58-.076 7.382 7.382 0 01-1.845-.695l.019-.038c1.588.818 2.453.761 2.463.752v.038c-.01.019-.029.019-.057.019zM33.676 35.56c-.2 0-.418-.038-.56-.143a.412.412 0 01-.143-.324h.038c0 .124.047.229.133.295.295.248 1.008.086 1.017.086l.01.038c-.019 0-.247.047-.495.047zM34.2 35.026s-.286-.085-1.675-.723l.02-.038c1.378.628 1.664.723 1.664.723l-.01.038zM33.963 36.633c-.19 0-.695-.038-1.18-.37l.02-.03c.598.41 1.236.362 1.236.362v.038h-.076zM33.973 36.196c-.247 0-.846-.067-1.664-.542l.019-.038c1.074.627 1.75.523 1.76.523l.009.038c0 .01-.038.019-.124.019zM32.993 31.08c-.694 0-1.122-.133-1.284-.4l.029-.019c.38.628 2.396.276 2.415.276l.01.038c-.01 0-.523.086-1.075.095-.019.01-.057.01-.095.01zM29.836 22.158v-.039c1.37-.085 2.463-.97 2.482-.98l.029.03c-.029.009-1.132.893-2.511.989zM30.506 20.732v-.038c1.407-.096 2.14-.571 2.15-.571l.018.028c-.01.01-.751.485-2.168.58zM30.402 22.359c-.162 0-.333 0-.523-.01v-.028c2.073.095 2.663-.419 2.663-.428l.029.028c-.01.01-.153.133-.562.257-.304.085-.827.18-1.607.18zM30.863 23.727c-.114 0-.247-.01-.361-.029l.01-.038c1.008.171 1.987-.447 1.997-.447l.019.028c-.02 0-.79.486-1.665.486zM31.448 22.615c-.228 0-.456-.038-.684-.133l.019-.038c.799.351 1.769-.115 1.778-.124l.02.038c-.02-.01-.533.257-1.133.257zM31.363 24.44c-.247 0-.485-.048-.675-.152l.018-.029c.666.4 2.017-.133 2.026-.143l.02.038c-.048 0-.752.286-1.39.286z" fill="#fff"/><path d="M30.845 23.87c-.162 0-.39-.038-.695-.123l.01-.039c.618.181.884.124.999.058.076-.048.076-.105.076-.105h.038s-.01.076-.086.133a.67.67 0 01-.342.076zM30.858 25.011a2.2 2.2 0 01-.542-.057l.01-.038c.694.171 2.397-.162 2.397-.162l.01.038c0 .01-1.085.22-1.874.22zM31.432 25.781c-.618 0-1.313-.076-1.75-.361l.019-.029c.941.6 3.062.247 3.081.247l.01.038c-.02-.01-.638.105-1.36.105zM32.049 26.676c-.257 0-.561-.085-.875-.304l.019-.029c.542.39 1.008.333 1.303.22.323-.124.532-.343.532-.343l.029.028s-.409.428-1.008.428zM32.514 27.408c-.218 0-.475-.038-.77-.124l.01-.038c1.055.333 1.626-.105 1.626-.105l.029.029c-.01-.01-.324.238-.895.238zM32.798 28.15c-.343 0-.77-.056-1.275-.246l.01-.038c1.008.39 1.817.247 2.092.104l.02.038s-.315.143-.847.143zM33.376 29.13a5.193 5.193 0 01-1.778-.334l.01-.038c1.255.476 2.282.295 2.291.295l.01.038c-.01.01-.2.038-.533.038zM31.529 29.737c-.114 0-.229 0-.314-.01v-.037c.79.066 2.739-.19 2.758-.19l.01.038c-.02 0-1.56.2-2.454.2zM31.925 21.027a.628.628 0 01-.257-.057l.01-.038c.18.066.332.066.456 0a.504.504 0 00.228-.285l.038.009c0 .01-.057.21-.247.314a.478.478 0 01-.228.057zM29.861 22.606v-.038c1.37-.086 2.464-.97 2.483-.98l.028.029c-.019.01-1.132.894-2.51.989zM32.072 20.237a2.64 2.64 0 01-.818-.143l.01-.038c.846.295 1.369.057 1.378.057l.02.038c-.02-.01-.229.086-.59.086zM30.549 21.634v-.038c1.407-.095 2.14-.57 2.15-.57l.018.028c-.01 0-.751.476-2.168.58z" fill="#fff"/><path d="M30.418 22.348c-.162 0-.333 0-.523-.01V22.3c2.063.095 2.663-.418 2.663-.428l.028.029c-.01.01-.152.133-.561.257-.295.095-.808.19-1.607.19zM30.89 23.28c-.113 0-.247-.009-.36-.028l.009-.038c1.008.171 1.988-.447 1.997-.447l.02.029c-.01 0-.79.485-1.665.485zM31.49 23.964c-.229 0-.457-.038-.685-.133l.019-.038c.799.352 1.769-.114 1.778-.124l.02.038c-.01 0-.533.257-1.133.257zM31.4 25.334c-.247 0-.485-.048-.675-.152l.019-.029c.665.4 2.016-.133 2.026-.142l.018.038c-.047.01-.741.285-1.388.285zM32.24 24.317c-.163 0-.39-.038-.695-.123l.01-.038c.618.18.884.123.998.057.076-.048.076-.105.076-.105h.038s-.01.076-.085.133c-.077.048-.172.076-.343.076z" fill="#fff"/><path d="M30.437 25.458c-.21 0-.4-.02-.543-.057l.01-.038c.694.17 2.397-.162 2.397-.162l.01.038c0 .01-1.075.219-1.874.219zM31.475 26.229c-.619 0-1.313-.076-1.75-.362l.019-.028c.941.6 3.062.247 3.081.247l.01.038c-.029 0-.647.105-1.36.105zM32.07 27.123c-.256 0-.56-.086-.875-.305l.02-.028c.541.39 1.007.333 1.302.219.324-.124.533-.343.533-.343l.029.029s-.4.428-1.009.428zM32.548 27.855c-.219 0-.476-.038-.77-.124l.009-.038c1.056.333 1.626-.105 1.626-.105l.029.029c-.01 0-.314.238-.894.238zM32.835 28.607c-.342 0-.77-.057-1.274-.248l.01-.038c1.007.39 1.816.238 2.091.105l.02.038c0-.01-.314.143-.847.143zM33.406 29.586a5.196 5.196 0 01-1.779-.333l.01-.038c1.255.475 2.282.295 2.292.295l.01.038c-.01 0-.21.038-.533.038zM33.226 30.784c-.313 0-.732-.057-1.245-.219l.009-.038c1.208.371 1.902.171 2.102.01l.028.028c-.038.029-.294.22-.894.22zM33.895 32.81c-.38 0-.989-.218-1.826-.637l.02-.038c1.455.742 1.959.704 2.14.533.19-.19.037-.58 0-.647-.124.019-1.18.095-2.198-.447l.02-.038c1.074.58 2.177.447 2.187.447h.01l.009.01c.01.018.228.475 0 .703-.076.076-.2.114-.362.114zM34.287 33.41c-.01 0-.684-.134-1.74-.619l.019-.038c1.056.485 1.73.618 1.73.618l-.009.038zM34.1 34.645c-.229 0-.705-.123-1.618-.808l.02-.029c.732.552 1.17.723 1.407.78.257.067.352-.01.352-.01l.028.03c-.009 0-.057.037-.19.037zM34.183 33.97c-.086 0-.276-.01-.58-.076a7.383 7.383 0 01-1.845-.694l.019-.038c1.588.818 2.454.76 2.463.751v.038c-.01.02-.019.02-.057.02zM33.718 36.006c-.2 0-.419-.038-.562-.143a.412.412 0 01-.142-.323h.038c0 .123.047.228.133.295.295.247 1.008.085 1.018.085l.01.038c-.03 0-.258.048-.495.048zM34.22 35.473s-.285-.085-1.673-.723l.019-.038c1.379.628 1.664.723 1.664.723l-.01.038zM33.996 37.08c-.19 0-.695-.038-1.18-.37l.02-.03c.59.41 1.236.362 1.236.362v.038h-.076zM33.998 36.634c-.247 0-.846-.067-1.664-.542l.019-.038c1.075.627 1.75.523 1.76.523l.01.038c0 .019-.048.019-.125.019zM33.028 31.526c-.694 0-1.122-.133-1.284-.4l.029-.019c.38.628 2.396.276 2.415.276l.01.038c-.01 0-.523.086-1.075.095-.038.01-.066.01-.095.01zM61.335 67.25s11.109 12.83 12.079 16.768h-7.038s-1.903-10.015-9.093-14.067l4.052-2.701z" fill="#fff"/><path d="M72.27 83.076s3.148 1.646 3.148 2.093c0 .447-4.499-1.646-4.499-1.646s1.76 2.093 1.76 2.55c0 .456-4.014-2.55-4.014-2.55s.58 2.996-.095 3.443c-.685.447-1.35-3.443-1.35-3.443s-.714 2.55-1.398 2.996c-.685.447.523-2.568.523-2.568l5.925-.875z" fill="#fff"/><path d="M68.596 85.817c-.6 0-1.037-.295-1.246-.856-.523-1.38-.533-3.586-.533-3.68 0-.039-.01-.353-.238-.353a.878.878 0 00-.342.095c-.19.096-.485.362-.808.647-.676.6-1.513 1.36-2.274 1.36-.409 0-.742-.209-1.008-.609a1.102 1.102 0 01.067-1.274c.39-.514 1.037-1.246 1.93-1.836 1.37-.884 3.558-7.97 3.11-11.042-.418-2.986-3.357-4.26-3.385-4.27l-.029-.01-.019-.019c-.123-.085-3.1-2.264-1.95-4.68.276-.58.856-.94 1.513-.94.418 0 .808.151 1.122.418 3.082 2.73 8.198 7.656 7.77 10.062v10.453c.98.532 3.539 2.026 3.053 2.996-.104.21-.332.456-.827.456-.39 0-.846-.161-1.208-.323.285.59.552 1.37.19 1.731a.677.677 0 01-.485.18c-.694 0-2.016-.808-2.853-2.539.01.105.028.219.038.324.171 1.645.266 2.843-.076 3.224a.424.424 0 01-.247.133c-.124.086-.695.352-1.265.352z" fill="#fff"/><mask id="b" fill="#fff"><path d="M63.397 58.567c.343 0 .695.114.97.37 2.435 2.15 8.123 7.467 7.695 9.854v10.634s3.519 1.864 3.063 2.758c-.124.247-.352.333-.619.333-.742 0-1.769-.647-1.769-.647s1.046 1.664.59 2.111a.447.447 0 01-.323.114c-.704 0-2.074-.932-2.825-2.815-.133-.342-.228-.494-.267-.494-.247 0 .657 4.45-.095 4.45 0 0-.618.353-1.227.353-.418 0-.827-.162-1.036-.714-.514-1.35-.514-3.595-.514-3.595s0-.58-.456-.58c-.115 0-.257.038-.438.124-.637.314-1.94 1.978-2.977 1.978-.304 0-.58-.143-.818-.514a.92.92 0 01.048-1.027c.352-.466.98-1.208 1.883-1.778 1.408-.913 3.671-8.123 3.224-11.27-.447-3.15-3.528-4.443-3.528-4.443s-2.958-2.12-1.884-4.394c.248-.523.761-.808 1.303-.808zm0-.457a1.9 1.9 0 00-1.721 1.075c-1.227 2.578 1.893 4.86 2.026 4.955l.047.029.048.019c.028.01 2.844 1.246 3.243 4.09.447 3.138-1.836 10.062-3.015 10.833a7.825 7.825 0 00-1.988 1.892 1.399 1.399 0 00-.076 1.541c.38.59.856.723 1.199.723.846 0 1.721-.78 2.415-1.408.286-.256.59-.532.752-.608.114-.067.19-.076.228-.086a.304.304 0 01.029.133c0 .086.01 2.35.551 3.757.247.647.761.999 1.455.999.59 0 1.16-.257 1.37-.371a.608.608 0 00.333-.2c.333-.37.352-1.122.2-2.692.78 1.123 1.788 1.75 2.52 1.75.333 0 .533-.133.647-.247.19-.19.39-.608.085-1.474.257.086.533.143.78.143.637 0 .913-.362 1.027-.58.533-1.075-1.56-2.435-3.024-3.225V68.83c.2-1.34-1.027-4.194-7.856-10.224a1.882 1.882 0 00-1.275-.495z"/></mask><path d="M64.368 58.938l-.652.7.01.008.009.008.633-.716zm7.694 9.853l-.94-.168-.016.083v.085h.956zm0 10.634h-.956V80l.509.27.447-.845zm3.063 2.758l-.852-.435-.003.007.855.428zm-2.388-.314l.51-.809-1.319 1.318.81-.51zm.59 2.111l-.669-.683-.007.007.676.676zm-3.148-2.7l-.891.346.003.007.888-.354zm-.362 3.956v-.956h-.253l-.22.125.473.83zm-2.263-.362l.893-.339-.893.34zm-.514-3.595h-.956.956zm-.894-.456l-.41-.864-.006.003-.006.003.422.858zm-3.795 1.464l-.806.513.002.003.804-.516zm.048-1.027l-.763-.576-.005.007.768.57zm1.883-1.778l.51.808.01-.007-.52-.801zm-.304-15.713l-.557.777.087.063.1.042.37-.882zm-1.884-4.394l.864.409-.864-.409zm-.418-.19l-.862-.412-.001.001.863.411zm2.026 4.955l-.556.778.031.022.033.02.492-.82zm.047.029l-.492.82.066.039.071.028.355-.887zm.048.019l-.355.887.026.01.027.01.302-.907zm3.243 4.09l-.946.133v.001l.946-.134zM64.025 79.11l.52.801.003-.001-.523-.8zm-1.988 1.892l.767.571.005-.006-.772-.565zm-.076 1.541l-.815.5.006.009.006.01.803-.519zm3.614-.685l-.639-.71-.002.001.641.71zm.752-.608l.407.864.038-.017.036-.022-.481-.825zm.228-.086l.855-.427-.343-.686-.744.186.232.927zm.58 3.89l.893-.341v-.002l-.893.343zm2.825.628l-.215-.932-.128.03-.115.063.458.839zm.333-.2l-.712-.638-.014.016-.014.017.74.605zm.2-2.692l.785-.545-2.09-3.007.353 3.645.952-.093zm3.167 1.503l.676.676-.676-.676zm.085-1.474l.303-.907-1.852-.617.648 1.841.901-.317zm1.807-.438l.848.443.004-.01.005-.008-.857-.425zm-3.024-3.224h-.956v.57l.502.272.454-.842zm0-10.329l-.945-.14-.01.07v.07h.955zm-7.856-10.224l-.647.704.007.006.007.006.633-.716zm-1.275.918c.134 0 .243.043.32.114l1.302-1.399a2.368 2.368 0 00-1.622-.627v1.912zm.338.131c1.208 1.067 3.203 2.902 4.837 4.754.818.928 1.52 1.832 1.987 2.624.499.847.603 1.36.562 1.59l1.882.338c.172-.963-.273-2.01-.797-2.898-.555-.943-1.347-1.951-2.2-2.919-1.713-1.941-3.779-3.838-5.006-4.922l-1.265 1.433zm7.371 9.137v10.634h1.912V68.79h-1.912zm.956 10.634l-.448.844h.001l.006.004.026.014.103.056a17.748 17.748 0 011.465.908c.394.276.717.542.907.757.098.11.115.157.11.143a.523.523 0 01.041-.403l1.703.87a1.4 1.4 0 00.04-1.154 2.445 2.445 0 00-.461-.723c-.342-.385-.812-.754-1.241-1.055a17.937 17.937 0 00-1.64-1.016l-.118-.065-.033-.018-.01-.005-.002-.001h-.001v-.001l-.448.845zm2.208 2.33a.41.41 0 01.176-.17c.065-.032.098-.025.06-.025v1.912c.477 0 1.13-.174 1.473-.862l-1.71-.855zm.236-.195c-.15 0-.43-.082-.761-.235a5.303 5.303 0 01-.471-.248l-.024-.015-.005-.003h.001l-.509.81-.509.809h.001l.002.002.004.002a3.396 3.396 0 00.057.035 7.271 7.271 0 00.65.343c.369.17.972.412 1.564.412V81.56zm-1.769.309c-.809.509-.81.508-.81.508l.001.001a2.164 2.164 0 01.554 1.23c.026.16-.062-.077.176-.31l1.338 1.365c.466-.456.419-1.07.376-1.347a3.979 3.979 0 00-.292-.939 8.055 8.055 0 00-.528-1.008l-.004-.005v-.002l-.001-.001-.81.508zm-.086 1.435a.522.522 0 01.353-.165v1.911a1.4 1.4 0 00.999-.394l-1.352-1.352zm.353-.165c.017 0-.053 0-.214-.078a2.473 2.473 0 01-.544-.38c-.412-.368-.857-.948-1.18-1.756l-1.775.708c.43 1.076 1.044 1.904 1.681 2.473.598.534 1.337.944 2.032.944V83.14zm-1.934-2.206a4.05 4.05 0 00-.226-.496 1.546 1.546 0 00-.158-.235 1.09 1.09 0 00-.187-.177.985.985 0 00-.587-.196v1.912a.937.937 0 01-.553-.182.822.822 0 01-.142-.133c-.038-.046-.051-.074-.041-.056.015.027.053.105.112.256l1.782-.693zm-1.157-1.104a.98.98 0 00-.818.441c-.1.153-.136.299-.15.36-.03.136-.032.267-.033.343 0 .171.016.385.035.594.02.218.047.47.074.727.028.26.056.532.081.803.05.554.078 1.048.058 1.387-.01.18-.031.233-.023.212.005-.014.042-.108.148-.207a.783.783 0 01.532-.21v1.913c.699 0 1.006-.558 1.1-.799.104-.264.138-.56.152-.796.03-.496-.012-1.115-.063-1.673-.026-.286-.056-.571-.084-.832-.028-.264-.053-.499-.071-.699a5.187 5.187 0 01-.027-.414c0-.046.004-.01-.011.06a.851.851 0 01-.123.285.932.932 0 01-.778.416V79.83zm-.096 5.407l-.472-.831.002-.001a.015.015 0 01.002-.001l-.008.004-.05.025a2.486 2.486 0 01-.2.087 1.52 1.52 0 01-.5.113v1.912c.47 0 .902-.132 1.182-.24a4.34 4.34 0 00.499-.227l.01-.006a.105.105 0 01.005-.003h.002v-.001l-.472-.831zm-1.227-.604c-.09 0-.112-.018-.102-.012.006.004.007.006.003 0a.318.318 0 01-.044-.085l-1.787.678c.171.451.454.81.839 1.043a2.09 2.09 0 001.091.288v-1.912zm-.143-.097c-.207-.546-.328-1.335-.39-2.048a16.64 16.64 0 01-.06-1.19l-.001-.015v-.003h-1.912v.033l.001.081.008.291c.008.244.025.585.06.97.065.747.201 1.756.507 2.56l1.787-.68zm-1.407-3.256h.956v-.001-.002-.003-.008-.017a1.473 1.473 0 00-.015-.184 1.809 1.809 0 00-.108-.425 1.448 1.448 0 00-.408-.579 1.35 1.35 0 00-.881-.317v1.912a.565.565 0 01-.354-.136.468.468 0 01-.136-.18c-.01-.023-.01-.032-.009-.026v-.005-.01-.008-.005-.003-.001-.001h.955zm-.456-1.536c-.315 0-.605.101-.847.216l.818 1.727a.876.876 0 01.091-.037c.009-.002-.014.006-.062.006v-1.912zm-.86.222c-.291.143-.583.393-.797.58-.264.233-.471.429-.74.657-.252.214-.48.389-.684.507-.215.124-.318.136-.334.136v1.912c.502 0 .95-.196 1.292-.394.352-.204.683-.465.966-.706.267-.227.57-.506.762-.675.108-.095.196-.17.27-.225.078-.06.111-.078.11-.077l-.845-1.715zm-2.555 1.88s.008 0 .022.004c.015.004.028.01.036.015.017.01-.012 0-.071-.093l-1.61 1.032c.382.595.937.954 1.623.954v-1.912zm-.011-.07c.015.023.015.04.015.042a.01.01 0 01-.001.003.036.036 0 01-.006.01l-1.535-1.14a1.875 1.875 0 00-.086 2.11l1.613-1.026zm.004.061c.32-.424.866-1.064 1.63-1.546l-1.02-1.617c-1.044.66-1.753 1.504-2.136 2.011l1.526 1.152zm1.64-1.552c.339-.22.615-.561.834-.886.231-.343.457-.758.67-1.212.43-.908.847-2.041 1.2-3.23.692-2.33 1.2-5.088.947-6.88l-1.893.27c.192 1.356-.207 3.776-.887 6.066-.333 1.122-.718 2.16-1.095 2.958a7.49 7.49 0 01-.528.96c-.08.119-.148.206-.204.268-.058.064-.087.084-.084.082l1.04 1.603zm3.65-12.207c-.266-1.876-1.317-3.178-2.251-3.99a8.12 8.12 0 00-1.671-1.115 4.527 4.527 0 00-.162-.075l-.013-.006-.004-.002h-.002c-.001 0-.002 0-.371.88-.37.882-.37.882-.371.881h-.002c-.001 0-.001 0 0 0l.014.006.073.034a6.204 6.204 0 011.256.841c.718.623 1.431 1.542 1.612 2.814l1.892-.268zm-4.474-4.308l.557-.776h.001v.001l-.001-.001-.016-.012a5.81 5.81 0 01-.348-.29 5.84 5.84 0 01-.77-.836c-.534-.717-.75-1.42-.443-2.071l-1.728-.817c-.766 1.621-.042 3.116.636 4.028a7.75 7.75 0 001.538 1.539l.01.008a.048.048 0 00.004.002l.001.001h.001l.558-.776zm-1.02-3.985a.464.464 0 01.44-.261V57.61c-.878 0-1.748.468-2.168 1.356l1.729.817zm.44-2.63a2.855 2.855 0 00-2.584 1.619l1.724.824a.944.944 0 01.86-.53v-1.913zm-2.585 1.62c-.832 1.747-.143 3.347.587 4.373a8.212 8.212 0 001.746 1.771l1.111-1.556-.002-.001-.008-.006-.027-.02a6.446 6.446 0 01-1.262-1.295c-.557-.783-.815-1.613-.419-2.444l-1.726-.822zm2.397 6.186l.047.029.984-1.64-.047-.028-.984 1.639zm.184.096l.048.02.71-1.776-.048-.019-.71 1.775zm.1.039c-.06-.02-.106-.044-.06-.023l.066.032a5.806 5.806 0 011.148.783c.654.575 1.288 1.404 1.446 2.524l1.893-.266c-.242-1.724-1.215-2.936-2.076-3.693a7.719 7.719 0 00-1.555-1.057 4.295 4.295 0 00-.186-.087l-.017-.007s-.024-.01-.054-.02l-.604 1.814zm2.6 3.317c.192 1.35-.21 3.694-.867 5.897-.322 1.078-.689 2.069-1.038 2.824a7.466 7.466 0 01-.48.9c-.158.245-.234.295-.207.277l1.046 1.6c.322-.21.576-.544.766-.837.207-.32.413-.71.61-1.137.397-.858.794-1.938 1.134-3.08.668-2.237 1.183-4.924.928-6.713l-1.892.27zm-2.59 9.897a8.777 8.777 0 00-2.238 2.13l1.543 1.129a6.866 6.866 0 011.737-1.656l-1.042-1.603zm-2.233 2.124a2.355 2.355 0 00-.125 2.61l1.63-.998a.444.444 0 01.028-.47l-1.533-1.142zm-.113 2.63c.577.893 1.373 1.16 2.002 1.16V82.31a.322.322 0 01-.15-.035c-.048-.025-.14-.085-.246-.25l-1.606 1.036zm2.002 1.16c.703 0 1.326-.317 1.794-.628.48-.32.922-.72 1.263-1.027l-1.283-1.418c-.354.32-.695.624-1.039.853-.354.235-.592.308-.735.308v1.912zm3.055-1.653c.147-.133.28-.253.396-.35a2.64 2.64 0 01.133-.105c.039-.029.031-.019-.01 0l-.814-1.73a2.68 2.68 0 00-.536.37c-.148.124-.31.27-.448.394l1.279 1.42zm.593-.494a.334.334 0 01-.076.028h.003l.008-.001.016-.004a.95.95 0 00.028-.007l-.464-1.854.012-.003a1.97 1.97 0 00-.15.04c-.103.031-.217.079-.34.15l.963 1.651zm-1.108-.483a.698.698 0 01-.072-.295h1.911c0-.162-.03-.363-.129-.56l-1.71.855zm-.072-.295c0 .06.003.68.076 1.472.072.772.22 1.798.54 2.629l1.783-.688c-.222-.576-.35-1.386-.42-2.119a15.695 15.695 0 01-.068-1.294h-1.911zm.614 4.098c.184.48.485.896.912 1.19.427.292.924.424 1.436.424v-1.912a.606.606 0 01-.354-.09.596.596 0 01-.208-.294l-1.786.682zm2.348 1.614c.823 0 1.56-.342 1.828-.488l-.916-1.678c-.057.031-.198.1-.378.158-.183.059-.37.096-.534.096v1.912zm1.585-.396c.292-.067.615-.23.858-.526l-1.48-1.21a.395.395 0 01.106-.092.308.308 0 01.086-.035l.43 1.863zm.83-.493c.382-.426.492-.97.524-1.474.032-.514-.009-1.161-.085-1.948l-1.903.185c.076.782.102 1.295.08 1.642-.023.358-.089.374-.04.319l1.423 1.276zm-1.297-2.784c.45.648.98 1.173 1.529 1.543.535.36 1.155.617 1.776.617v-1.911c-.112 0-.362-.058-.708-.291a4.052 4.052 0 01-1.027-1.049l-1.57 1.09zm3.305 2.16c.626 0 1.06-.263 1.323-.527l-1.352-1.352a.146.146 0 01.053-.033l.003-.001h-.006l-.021.002v1.911zm1.323-.527c.524-.524.698-1.366.311-2.467l-1.803.634c.116.33.105.49.099.53-.004.028-.003-.005.04-.049l1.353 1.352zm-.893-1.243a3.5 3.5 0 001.082.191v-1.911c-.113 0-.284-.03-.477-.094l-.605 1.814zm1.082.191c1.106 0 1.655-.673 1.875-1.093l-1.695-.885a.113.113 0 01-.03.04c-.002.001-.01.007-.026.012a.411.411 0 01-.124.015v1.911zm1.884-1.111c.303-.613.191-1.224-.042-1.695-.222-.448-.58-.839-.94-1.16-.726-.65-1.696-1.231-2.446-1.635L72.075 80c.714.385 1.523.88 2.076 1.375.28.252.437.452.503.586.055.11.005.072.042-.003l1.713.849zm-2.925-3.649V68.83h-1.912v10.33h1.912zm-.01-10.188c.154-1.038-.276-2.344-1.453-4.04-1.198-1.725-3.276-4.004-6.716-7.042l-1.266 1.433c3.388 2.992 5.339 5.155 6.412 6.7 1.093 1.573 1.177 2.365 1.132 2.668l1.89.281zm-8.155-11.069a2.838 2.838 0 00-1.922-.747v1.912c.233 0 .457.085.628.243L65.32 57.9z" fill="#9F2241" mask="url(#b)"/></svg>
